<svg xmlns="http://www.w3.org/2000/svg" xmlns:xlink="http://www.w3.org/1999/xlink" width="500" zoomAndPan="magnify" viewBox="0 0 375 374.999991" height="500" preserveAspectRatio="xMidYMid meet" version="1.0"><defs><clipPath id="2c4784ee40"><path d="M 175 42.074219 L 188 42.074219 L 188 48 L 175 48 Z M 175 42.074219 " clip-rule="nonzero"/></clipPath></defs><path fill="#ffffff" d="M 314.042969 205.285156 C 305.335938 198.136719 295.132812 192.542969 285.445312 186.894531 C 280.429688 184.011719 275.359375 181.128906 270.226562 178.417969 C 276.28125 171.328125 281.871094 163.949219 287.0625 156.109375 C 298.589844 138.582031 311.851562 113.90625 296.515625 94.480469 C 289.425781 85.429688 278.296875 83.410156 267.691406 86.871094 C 256.277344 90.617188 245.496094 97.363281 235.117188 103.242188 C 229.929688 106.183594 224.796875 109.296875 219.667969 112.464844 C 219.667969 112.464844 219.667969 112.464844 219.609375 112.410156 C 216.035156 102.609375 211.828125 92.980469 206.867188 83.582031 C 197.296875 65.710938 182.769531 44.148438 159.421875 47.378906 C 144.546875 49.453125 139.359375 60.867188 137.515625 73.726562 C 135.726562 73.496094 133.882812 73.550781 132.152344 74.011719 C 126.386719 75.511719 123.738281 80.988281 123.101562 86.582031 C 122.527344 92 126.503906 96.382812 130.941406 98.859375 C 132.671875 99.839844 134.574219 100.648438 136.535156 101.222656 C 136.535156 110.507812 136.765625 119.84375 137.285156 129.183594 C 130.367188 127.6875 123.503906 126.417969 116.585938 125.207031 C 104.828125 123.1875 92.085938 120.363281 80.039062 121.230469 C 69.773438 121.980469 58.9375 126.359375 53.75 135.871094 C 48.15625 146.191406 51.847656 157.78125 58.304688 166.714844 C 70.523438 183.550781 89.78125 195.886719 107.363281 206.496094 C 104.367188 209.839844 101.425781 213.238281 98.601562 216.640625 C 97.21875 218.253906 95.832031 219.925781 94.449219 221.597656 C 94.046875 221.367188 93.699219 221.195312 93.296875 221.023438 C 88.800781 219.121094 83.324219 218.660156 78.828125 220.734375 C 73.636719 223.039062 70.699219 229.613281 72.773438 234.972656 C 73.925781 237.914062 76.058594 240.507812 78.367188 242.816406 C 77.789062 243.738281 77.210938 244.660156 76.695312 245.582031 C 71.273438 255.265625 68.910156 267.71875 74.847656 277.808594 C 80.210938 286.800781 90.53125 290.03125 100.503906 289.683594 C 110.648438 289.339844 120.625 286.226562 130.019531 282.535156 C 140.628906 278.386719 151.003906 273.484375 161.035156 268.125 C 161.957031 267.605469 162.882812 267.144531 163.804688 266.625 C 166.167969 273.484375 168.703125 280.289062 171.355469 286.976562 C 175.851562 298.332031 180.003906 310.957031 188.246094 320.183594 C 195.109375 327.847656 206.175781 332.808594 216.4375 329.636719 C 225.488281 326.871094 231.3125 318.914062 234.886719 310.554688 C 242.09375 293.894531 243.535156 274.234375 243.9375 255.902344 C 251.316406 257.054688 258.753906 257.917969 266.25 258.265625 C 267.863281 263.453125 271.957031 267.894531 277.085938 269.796875 C 284.410156 272.503906 293.460938 268.816406 296.398438 261.4375 C 296.457031 261.4375 296.457031 261.4375 296.457031 261.378906 C 297.726562 259.648438 298.417969 257.746094 298.535156 255.785156 C 311.390625 252.382812 322.515625 245.0625 325.167969 230.476562 C 326.839844 220.273438 321.710938 211.511719 314.042969 205.285156 Z M 169.28125 252.5 C 167.203125 246.101562 165.246094 239.644531 163.398438 233.1875 C 171.757812 236.300781 180.175781 239.242188 188.59375 241.949219 C 182.136719 245.410156 175.679688 248.984375 169.28125 252.5 Z M 146.21875 141.117188 C 154.175781 142.964844 162.132812 145.039062 169.972656 147.230469 C 162.824219 152.878906 155.789062 158.761719 148.929688 164.8125 C 147.777344 156.914062 146.910156 149.015625 146.21875 141.117188 Z M 225.488281 150.976562 C 226.125 153.226562 226.699219 155.472656 227.21875 157.78125 C 214.652344 152.417969 201.910156 147.632812 188.996094 143.308594 C 197.992188 136.449219 207.214844 129.933594 216.726562 123.824219 C 220.128906 132.757812 223.011719 141.867188 225.488281 150.976562 Z M 229.699219 168.042969 C 231.773438 177.152344 233.617188 186.257812 235.40625 195.425781 C 235.464844 199.117188 235.40625 202.804688 235.289062 206.550781 C 235.289062 206.550781 235.289062 206.550781 235.289062 206.609375 C 225.605469 215.890625 215.457031 224.65625 205.195312 233.359375 C 201.851562 235.203125 198.453125 236.933594 195.050781 238.664062 C 183.867188 235.433594 172.796875 231.6875 161.84375 227.824219 C 157.171875 210.703125 153.425781 193.40625 150.542969 175.941406 C 160.113281 167.003906 169.972656 158.472656 180.175781 150.34375 C 197.011719 155.300781 213.554688 161.179688 229.699219 168.042969 Z M 150.71875 222.175781 C 141.203125 216.410156 131.921875 210.070312 122.351562 204.417969 C 122.296875 204.363281 122.238281 204.363281 122.179688 204.304688 C 128.925781 197.039062 135.84375 189.949219 142.933594 183.089844 C 145.007812 196.289062 147.605469 209.320312 150.71875 222.175781 Z M 235.117188 213.816406 C 234.828125 221.195312 234.542969 228.515625 234.542969 235.839844 C 234.542969 239.703125 234.542969 243.5625 234.425781 247.425781 C 223.761719 245.753906 213.210938 243.449219 202.890625 240.738281 C 213.902344 232.089844 224.683594 223.214844 235.117188 213.816406 Z M 235.347656 170.464844 C 243.304688 173.921875 251.085938 177.613281 258.8125 181.589844 C 253.105469 188.390625 247.109375 194.90625 240.824219 201.191406 C 239.210938 190.871094 237.421875 180.609375 235.347656 170.464844 Z M 249.183594 104.511719 C 258.234375 99.550781 270.398438 91.019531 281.238281 93.328125 C 290.691406 95.402344 295.535156 106.007812 295.59375 114.886719 C 295.652344 126.1875 289.828125 136.621094 284.234375 146.019531 C 278.242188 156.109375 271.4375 165.851562 264.058594 175.132812 C 253.910156 169.828125 243.59375 164.871094 233.15625 160.316406 C 232.582031 157.722656 231.945312 155.070312 231.3125 152.476562 C 228.71875 141.578125 225.777344 130.800781 222.261719 120.308594 C 231.082031 114.714844 240.019531 109.527344 249.183594 104.511719 Z M 144.894531 121.921875 C 144.605469 115.175781 144.492188 108.488281 144.433594 101.800781 C 145.816406 101.398438 147.144531 100.761719 148.351562 99.78125 C 152.964844 97.765625 157.117188 93.382812 155.675781 87.964844 C 155.039062 85.601562 153.65625 83.46875 152.042969 81.679688 C 151.234375 80.816406 150.371094 80.007812 149.449219 79.316406 C 149.160156 79.085938 148.816406 78.855469 148.46875 78.566406 L 148.238281 78.335938 C 148.121094 78.222656 147.949219 78.105469 147.835938 78.046875 C 147.316406 77.644531 146.796875 77.300781 146.21875 76.953125 C 145.816406 76.664062 145.414062 76.433594 144.953125 76.203125 C 145.414062 69.804688 146.855469 63.40625 151.464844 59.195312 C 158.5 52.796875 169.800781 54.355469 177.292969 58.964844 C 182.539062 62.136719 186.75 66.632812 190.265625 71.59375 C 190.324219 71.648438 190.324219 71.707031 190.378906 71.707031 C 186.574219 69.574219 182.597656 67.613281 178.5625 65.941406 C 177.582031 65.539062 176.890625 67.210938 177.871094 67.613281 C 182.65625 69.746094 187.324219 72.285156 191.707031 75.167969 C 192.457031 75.628906 193.148438 76.203125 193.898438 76.722656 C 195.050781 78.511719 196.144531 80.355469 197.183594 82.199219 C 201.046875 88.773438 204.621094 95.515625 207.847656 102.492188 C 207.847656 102.492188 207.847656 102.550781 207.90625 102.550781 C 207.042969 101.917969 206.234375 101.28125 205.371094 100.648438 C 198.566406 95.863281 191.359375 91.941406 183.578125 89.058594 C 183.175781 88.886719 182.886719 89.578125 183.289062 89.808594 C 190.324219 93.5 197.242188 97.648438 203.699219 102.378906 C 206.003906 104.050781 208.195312 105.835938 210.328125 107.679688 C 211.597656 110.449219 212.75 113.273438 213.902344 116.097656 C 202.082031 123.59375 190.496094 131.664062 179.3125 140.136719 C 170.375 137.371094 161.324219 134.890625 152.273438 132.644531 C 150.082031 132.066406 147.835938 131.546875 145.644531 131.03125 C 145.238281 127.972656 145.066406 124.917969 144.894531 121.921875 Z M 104.828125 193.695312 C 104.769531 193.695312 104.769531 193.636719 104.710938 193.636719 C 104.367188 193.234375 103.960938 192.890625 103.617188 192.484375 C 102.347656 191.101562 101.078125 189.71875 99.925781 188.277344 C 97.449219 185.222656 95.140625 182.050781 93.007812 178.707031 C 88.972656 172.308594 85.628906 165.449219 82.285156 158.703125 C 82.171875 158.472656 81.882812 158.644531 81.941406 158.875 C 83.324219 166.65625 86.4375 173.808594 90.585938 180.550781 C 91.972656 182.800781 93.46875 184.933594 94.96875 187.066406 C 89.492188 183.261719 84.1875 179.167969 79.171875 174.84375 C 77.902344 173.75 76.695312 172.652344 75.425781 171.5 C 74.386719 168.792969 73.464844 166.082031 72.601562 163.3125 C 70.8125 157.550781 69.601562 151.496094 68.507812 145.558594 C 68.390625 144.921875 67.410156 145.097656 67.410156 145.730469 C 67.125 152.015625 67.988281 158.066406 69.488281 164.179688 C 69.660156 164.871094 69.890625 165.503906 70.0625 166.140625 C 67.007812 162.738281 64.355469 159.105469 62.453125 155.011719 C 57.957031 145.097656 62.570312 135.929688 72.65625 132.414062 C 83.207031 128.78125 95.777344 131.78125 106.5 133.394531 C 117.050781 135.007812 127.542969 136.96875 137.917969 139.273438 C 138.726562 150.113281 139.820312 161.007812 141.320312 171.789062 C 134.921875 177.613281 128.753906 183.605469 122.757812 189.777344 C 119.699219 192.890625 116.703125 196.058594 113.820312 199.289062 C 110.765625 197.445312 107.765625 195.597656 104.828125 193.695312 Z M 117.394531 276.597656 C 109.84375 278.960938 101.308594 281.035156 93.414062 279.480469 C 82.6875 277.347656 79 267.085938 81.882812 257.285156 C 82.804688 254.285156 84.074219 251.40625 85.6875 248.636719 C 87.703125 249.617188 89.894531 250.25 92.257812 250.136719 C 101.023438 249.734375 103.730469 239.988281 102.175781 232.667969 C 102.175781 232.554688 102.175781 232.4375 102.117188 232.378906 C 101.886719 231.054688 101.539062 229.785156 101.023438 228.574219 C 105.808594 222.695312 110.648438 217.042969 115.664062 211.394531 C 119.414062 213.585938 123.160156 215.601562 127.023438 217.507812 C 127.023438 217.96875 127.253906 218.429688 127.773438 218.660156 C 135.902344 222.234375 144.144531 225.632812 152.445312 228.921875 C 154.292969 236.242188 156.367188 243.5625 158.558594 250.769531 C 159.191406 252.960938 159.882812 255.09375 160.632812 257.226562 C 146.796875 264.835938 132.441406 271.984375 117.394531 276.597656 Z M 201.910156 318.742188 C 191.878906 313.4375 187.671875 301.503906 183.578125 291.644531 C 179.484375 281.730469 175.738281 271.699219 172.277344 261.609375 C 175.679688 259.648438 179.023438 257.574219 182.367188 255.382812 C 182.769531 255.613281 183.289062 255.671875 183.691406 255.324219 C 188.363281 251.867188 193.089844 248.347656 197.703125 244.832031 C 197.933594 244.890625 198.105469 244.949219 198.335938 245.0625 C 210.210938 248.636719 222.203125 251.808594 234.308594 254.171875 C 234.253906 256.535156 234.195312 258.898438 234.023438 261.261719 C 234.023438 261.261719 234.023438 261.320312 234.023438 261.320312 C 232.753906 264.316406 231.253906 267.316406 229.527344 270.082031 C 228.601562 271.582031 227.566406 272.964844 226.46875 274.347656 C 226.46875 274.292969 226.414062 274.234375 226.355469 274.234375 C 226.183594 274.234375 226.183594 274.464844 226.296875 274.523438 C 223.300781 278.269531 219.898438 281.671875 216.785156 285.304688 C 216.613281 285.476562 216.785156 285.878906 217.074219 285.765625 C 223.472656 283.171875 228.316406 277.691406 232.175781 272.160156 C 232.636719 271.46875 233.042969 270.773438 233.445312 270.082031 C 233.445312 270.082031 233.445312 270.140625 233.445312 270.140625 C 233.503906 270.199219 233.445312 270.199219 233.445312 270.199219 C 232.984375 275.964844 232.234375 281.730469 231.199219 287.4375 C 229.8125 290.375 228.140625 293.257812 226.238281 295.851562 C 222.261719 301.328125 217.015625 305.828125 211.882812 310.207031 C 211.652344 310.382812 211.882812 310.785156 212.171875 310.667969 C 218.976562 308.480469 224.394531 303.75 228.832031 298.21875 C 224.972656 311.476562 217.015625 326.753906 201.910156 318.742188 Z M 309.71875 241.71875 C 305.914062 245.179688 301.300781 247.3125 296.34375 248.636719 C 295.707031 247.65625 294.84375 246.734375 293.921875 245.925781 C 289.65625 242.296875 283.773438 240.164062 278.125 240.566406 C 275.414062 240.796875 272.707031 241.429688 270.398438 242.929688 C 267.632812 244.773438 266.019531 247.425781 265.5 250.597656 C 258.292969 250.308594 251.085938 249.734375 243.9375 248.867188 L 243.9375 248.636719 C 243.996094 240.96875 243.878906 233.359375 243.417969 225.691406 C 243.824219 225.402344 244.109375 225.058594 244.054688 224.480469 C 243.363281 218.890625 242.613281 213.238281 241.804688 207.648438 C 249.589844 200.441406 257.023438 193.0625 264.117188 185.277344 C 264.578125 185.683594 265.097656 186.085938 265.558594 186.488281 C 268.210938 188.96875 270.6875 191.679688 273.050781 194.445312 C 277.777344 199.863281 281.816406 206.035156 285.390625 212.316406 C 285.734375 212.894531 286.714844 212.492188 286.484375 211.855469 C 285.273438 208.339844 283.890625 204.878906 281.988281 201.652344 C 280.085938 198.367188 277.894531 195.253906 275.589844 192.3125 C 274.667969 191.101562 273.628906 189.949219 272.589844 188.796875 C 272.589844 188.796875 272.648438 188.796875 272.648438 188.796875 C 278.007812 191.679688 283.199219 194.734375 288.386719 197.847656 C 290.808594 200.441406 293.113281 203.207031 295.363281 206.035156 C 300.03125 211.972656 304.183594 218.429688 307.871094 225 C 308.160156 225.460938 308.96875 225.171875 308.738281 224.65625 C 305.914062 217.449219 302.28125 210.875 297.726562 204.648438 C 297.148438 203.84375 296.515625 203.152344 295.9375 202.34375 C 295.9375 202.34375 295.996094 202.402344 295.996094 202.402344 C 302.511719 206.207031 309.3125 210.414062 313.867188 216.179688 C 320.441406 224.539062 317.039062 235.03125 309.71875 241.71875 Z M 309.71875 241.71875 " fill-opacity="1" fill-rule="nonzero"/><path fill="#ffffff" d="M 195.511719 208.914062 C 197.066406 209.261719 198.683594 209.378906 200.238281 209.148438 C 202.082031 208.859375 204.042969 207.417969 205.195312 206.035156 C 207.734375 203.152344 208.828125 199.691406 208.945312 195.886719 C 209.175781 188.621094 205.601562 181.1875 199.777344 176.863281 C 193.609375 172.308594 184.386719 172.308594 178.273438 176.976562 C 172.453125 181.472656 169.855469 189.257812 171.527344 196.347656 C 173.835938 206.378906 185.828125 213.929688 195.511719 208.914062 Z M 180.867188 182.914062 C 181.847656 181.933594 182.425781 181.589844 183.867188 180.78125 C 184.269531 180.550781 184.5 180.496094 185.308594 180.261719 C 185.652344 180.148438 186 180.089844 186.402344 179.976562 C 186.574219 179.917969 186.691406 179.917969 186.863281 179.859375 C 186.980469 179.859375 187.035156 179.800781 187.09375 179.800781 C 187.09375 179.800781 187.152344 179.800781 187.152344 179.800781 C 188.707031 179.628906 190.324219 179.6875 191.648438 179.976562 C 192.28125 180.089844 192.917969 180.320312 193.550781 180.496094 C 194.011719 180.667969 193.492188 180.4375 194.070312 180.726562 C 194.417969 180.898438 194.761719 181.070312 195.109375 181.300781 C 196.375 182.050781 196.722656 182.339844 197.875 183.492188 C 198.105469 183.722656 198.335938 184.011719 198.566406 184.300781 C 198.96875 184.761719 198.625 184.355469 198.914062 184.703125 C 199.316406 185.277344 199.71875 185.855469 200.007812 186.488281 C 200.179688 186.777344 200.355469 187.125 200.46875 187.46875 C 200.757812 188.105469 200.527344 187.46875 200.699219 187.929688 C 200.929688 188.566406 201.160156 189.257812 201.390625 189.949219 C 201.566406 190.640625 201.738281 191.332031 201.851562 192.023438 C 201.851562 192.140625 201.851562 192.140625 201.910156 192.195312 C 201.910156 192.253906 201.910156 192.253906 201.910156 192.3125 C 201.96875 192.714844 201.96875 193.121094 202.027344 193.523438 C 202.082031 194.332031 202.027344 195.078125 201.96875 195.886719 C 201.96875 196.058594 201.910156 196.175781 201.910156 196.347656 C 201.910156 196.347656 201.910156 196.40625 201.910156 196.40625 C 201.851562 196.75 201.796875 197.039062 201.679688 197.386719 C 201.566406 197.730469 201.507812 198.136719 201.390625 198.480469 C 201.335938 198.597656 201.21875 199 201.105469 199.230469 C 200.988281 199.460938 200.757812 199.980469 200.816406 199.980469 C 200.816406 200.039062 200.757812 200.210938 200.699219 200.324219 C 200.640625 200.5 200.410156 200.960938 200.355469 201.074219 C 200.007812 201.710938 199.605469 202.285156 199.199219 202.863281 C 199.144531 202.976562 198.796875 203.4375 198.796875 203.496094 C 198.566406 203.785156 198.335938 204.015625 198.105469 204.246094 C 197.066406 205.457031 196.375 206.726562 195.222656 207.820312 C 190.84375 207.761719 186.402344 205.515625 183 202.921875 C 181.90625 202.113281 180.40625 200.671875 179.832031 199.863281 C 179.425781 199.289062 179.023438 198.710938 178.675781 198.136719 C 178.503906 197.789062 178.332031 197.5 178.160156 197.15625 C 178.160156 197.15625 178.101562 197.039062 178.042969 196.925781 C 177.984375 196.808594 177.871094 196.40625 177.871094 196.40625 C 176.257812 191.621094 177.351562 186.375 180.867188 182.914062 Z M 180.867188 182.914062 " fill-opacity="1" fill-rule="nonzero"/><path fill="#ffffff" d="M 303.664062 143.019531 C 302.394531 145.152344 300.953125 147.230469 299.398438 149.132812 C 297.957031 150.917969 296.226562 152.535156 294.902344 154.4375 C 293.804688 156.050781 295.9375 158.066406 297.554688 157.089844 C 301.589844 154.550781 304.757812 149.535156 307.066406 145.441406 C 309.601562 141.003906 311.503906 136.101562 312.714844 131.144531 C 315.136719 121.171875 314.734375 110.621094 311.390625 100.878906 C 310.753906 99.148438 308.046875 99.839844 308.566406 101.628906 C 311.445312 110.851562 311.621094 120.769531 309.082031 130.109375 C 307.816406 134.660156 306.027344 138.984375 303.664062 143.019531 Z M 303.664062 143.019531 " fill-opacity="1" fill-rule="nonzero"/><path fill="#ffffff" d="M 291.789062 161.296875 C 291.5 161.410156 291.210938 161.46875 290.921875 161.585938 C 290.347656 161.816406 290.058594 162.21875 289.710938 162.738281 C 289.308594 163.3125 288.90625 163.890625 288.558594 164.46875 C 287.808594 165.679688 287.003906 166.832031 286.136719 167.925781 C 285.214844 169.078125 284.179688 170.058594 283.257812 171.15625 C 282.277344 172.25 281.238281 173.34375 280.144531 174.324219 C 279.625 174.785156 280.316406 175.535156 280.890625 175.304688 C 282.277344 174.671875 283.601562 173.921875 284.871094 173.113281 C 286.195312 172.308594 287.347656 171.15625 288.445312 170.058594 C 289.597656 168.90625 290.636719 167.695312 291.558594 166.425781 C 292.019531 165.851562 292.363281 165.214844 292.710938 164.582031 C 293 164.121094 293.230469 163.660156 293.171875 163.082031 C 293.171875 162.679688 293 162.335938 292.941406 161.929688 C 292.769531 161.46875 292.25 161.179688 291.789062 161.296875 Z M 291.789062 161.296875 " fill-opacity="1" fill-rule="nonzero"/><path fill="#ffffff" d="M 195.050781 56.546875 C 196.605469 57.640625 198.046875 58.851562 199.433594 60.121094 C 202.140625 62.597656 204.734375 65.308594 206.925781 68.304688 C 211.308594 74.300781 213.84375 81.21875 217.015625 87.847656 C 217.128906 88.078125 217.476562 87.964844 217.476562 87.734375 C 217.878906 80.007812 214.191406 72.515625 209.867188 66.289062 C 207.675781 63.058594 205.140625 60.003906 202.199219 57.410156 C 200.816406 56.140625 199.375 54.988281 197.875 53.894531 C 196.433594 52.796875 194.472656 51.066406 192.628906 50.78125 C 191.359375 50.605469 189.6875 51.933594 190.726562 53.257812 C 191.820312 54.699219 193.609375 55.507812 195.050781 56.546875 Z M 195.050781 56.546875 " fill-opacity="1" fill-rule="nonzero"/><g clip-path="url(#2c4784ee40)"><path fill="#ffffff" d="M 176.429688 44.378906 C 177.351562 44.496094 178.214844 44.726562 179.082031 45.015625 C 180.003906 45.359375 180.925781 45.535156 181.847656 45.878906 C 182.25 46.050781 182.308594 46.050781 182.828125 46.339844 C 183.230469 46.570312 183.691406 46.800781 184.097656 47.03125 C 184.269531 47.148438 184.5 47.207031 184.671875 47.320312 C 184.789062 47.378906 184.847656 47.4375 184.730469 47.320312 C 185.019531 47.4375 185.308594 47.609375 185.59375 47.722656 C 186.171875 47.898438 186.691406 47.722656 187.210938 47.550781 C 187.554688 47.4375 187.730469 47.148438 187.785156 46.800781 C 187.84375 46.285156 187.84375 45.707031 187.554688 45.246094 C 187.210938 44.726562 186.519531 44.148438 186 43.863281 C 185.019531 43.34375 183.921875 42.941406 182.828125 42.707031 C 181.847656 42.476562 180.695312 42.191406 179.65625 42.304688 C 178.5625 42.421875 177.523438 42.652344 176.488281 42.996094 C 175.796875 43.171875 175.621094 44.265625 176.429688 44.378906 Z M 176.429688 44.378906 " fill-opacity="1" fill-rule="nonzero"/></g><path fill="#ffffff" d="M 132.558594 286.050781 C 128.808594 286.746094 125.523438 288.53125 121.949219 289.742188 C 118.203125 291.011719 114.398438 291.875 110.476562 292.507812 C 106.554688 293.144531 102.636719 293.546875 98.660156 293.949219 C 94.851562 294.296875 91.046875 294.527344 87.417969 295.738281 C 87.1875 295.796875 87.1875 296.140625 87.417969 296.199219 C 91.222656 297.238281 95.140625 297.238281 99.0625 297.121094 C 103.210938 297.007812 107.363281 296.71875 111.457031 296.082031 C 115.492188 295.507812 119.46875 294.585938 123.332031 293.316406 C 127.136719 292.046875 130.828125 290.722656 133.421875 287.492188 C 134 286.859375 133.480469 285.878906 132.558594 286.050781 Z M 132.558594 286.050781 " fill-opacity="1" fill-rule="nonzero"/><path fill="#ffffff" d="M 147.949219 280.230469 C 146.738281 281.09375 145.472656 281.902344 144.144531 282.535156 C 143.855469 282.707031 143.511719 282.824219 143.222656 282.996094 C 143.050781 283.054688 142.875 283.171875 142.703125 283.226562 C 142.703125 283.226562 142.644531 283.226562 142.644531 283.226562 C 142.589844 283.226562 142.359375 283.34375 142.414062 283.34375 C 142.011719 283.515625 141.550781 283.632812 141.148438 283.863281 C 140.800781 284.035156 140.511719 284.265625 140.222656 284.4375 C 139.648438 284.785156 138.726562 285.648438 138.839844 286.457031 C 138.957031 287.320312 140.339844 287.609375 141.089844 287.550781 C 141.492188 287.492188 141.839844 287.4375 142.242188 287.378906 C 142.761719 287.261719 143.222656 287.089844 143.683594 286.859375 C 144.375 286.515625 145.007812 286.167969 145.644531 285.820312 C 147.144531 284.957031 148.582031 283.917969 149.96875 282.765625 C 150.542969 282.246094 150.542969 281.269531 150.082031 280.691406 C 149.5625 280.113281 148.582031 279.769531 147.949219 280.230469 Z M 147.949219 280.230469 " fill-opacity="1" fill-rule="nonzero"/><path fill="#ffffff" d="M 249.589844 278.15625 C 250.28125 285.820312 249.472656 293.605469 247.339844 300.984375 C 246.300781 304.730469 244.859375 308.363281 243.074219 311.824219 C 241.632812 314.648438 238.578125 317.875 238.578125 321.105469 C 238.578125 321.566406 239.039062 321.910156 239.441406 321.738281 C 242.785156 320.699219 244.6875 316.03125 246.128906 313.148438 C 247.917969 309.515625 249.414062 305.710938 250.453125 301.792969 C 252.585938 293.949219 252.875 285.820312 251.664062 277.808594 C 251.433594 276.714844 249.472656 277 249.589844 278.15625 Z M 249.589844 278.15625 " fill-opacity="1" fill-rule="nonzero"/><path fill="#ffffff" d="M 234.542969 324.679688 C 234.195312 324.679688 233.792969 324.679688 233.445312 324.679688 C 233.042969 324.679688 232.695312 324.792969 232.292969 324.910156 C 231.832031 325.023438 231.371094 325.140625 230.964844 325.371094 C 230.621094 325.542969 230.273438 325.714844 229.929688 325.890625 C 229.238281 326.234375 228.601562 326.582031 227.910156 326.925781 C 227.738281 326.984375 227.566406 327.101562 227.449219 327.15625 C 227.160156 327.332031 226.929688 327.5625 226.699219 327.847656 C 226.46875 328.136719 226.296875 328.425781 226.066406 328.65625 C 225.664062 329.175781 226.183594 329.925781 226.816406 329.925781 C 227.160156 329.925781 227.566406 329.925781 227.910156 329.925781 C 228.429688 329.925781 228.832031 329.695312 229.351562 329.464844 C 230.042969 329.117188 230.734375 328.773438 231.484375 328.425781 C 231.832031 328.253906 232.175781 328.136719 232.523438 327.90625 C 232.871094 327.734375 233.15625 327.445312 233.445312 327.214844 C 233.847656 326.925781 234.195312 326.640625 234.484375 326.292969 C 234.714844 326.003906 234.886719 325.714844 235.117188 325.484375 C 235.289062 325.199219 234.945312 324.679688 234.542969 324.679688 Z M 234.542969 324.679688 " fill-opacity="1" fill-rule="nonzero"/><path fill="#ffffff" d="M 283.082031 105.03125 C 283.488281 106.46875 284.121094 107.855469 284.523438 109.296875 C 285.273438 112.121094 285.734375 115.0625 285.675781 118.058594 C 285.675781 118.867188 286.136719 119.558594 286.773438 119.960938 C 287.523438 120.421875 288.273438 120.363281 289.019531 119.960938 C 289.710938 119.613281 290.117188 118.808594 290.117188 118.058594 C 290.117188 114.65625 289.597656 111.253906 288.386719 108.085938 C 287.753906 106.46875 287.117188 104.796875 286.023438 103.472656 C 285.5625 102.839844 285.042969 102.261719 284.464844 101.6875 C 283.890625 101.109375 283.371094 100.761719 282.5625 100.53125 C 282.277344 100.417969 281.988281 100.707031 281.988281 100.9375 C 281.988281 101.742188 282.101562 102.320312 282.390625 103.070312 C 282.679688 103.703125 282.910156 104.394531 283.082031 105.03125 Z M 283.082031 105.03125 " fill-opacity="1" fill-rule="nonzero"/><path fill="#ffffff" d="M 194.589844 188.21875 C 194.648438 188.738281 194.761719 189.140625 194.878906 189.601562 C 194.933594 189.777344 194.992188 190.007812 194.992188 190.179688 C 194.992188 190.292969 195.050781 190.351562 195.050781 190.46875 C 195.050781 190.527344 195.050781 190.527344 195.050781 190.527344 C 195.109375 191.332031 195.164062 192.140625 195.164062 192.945312 C 195.164062 193.175781 195.164062 193.351562 195.109375 193.523438 C 195.109375 193.636719 195.109375 193.695312 195.109375 193.8125 C 195.050781 194.214844 194.933594 194.617188 194.820312 195.023438 C 194.589844 195.945312 195.164062 197.097656 196.089844 197.328125 C 197.011719 197.558594 198.164062 197.039062 198.394531 196.058594 C 198.394531 196.003906 198.394531 195.945312 198.453125 195.886719 C 198.453125 195.886719 198.453125 195.828125 198.453125 195.828125 C 198.914062 193.871094 198.96875 191.851562 198.335938 189.949219 C 197.992188 188.96875 197.644531 187.875 196.894531 187.183594 C 196.261719 186.546875 195.511719 186.027344 194.761719 185.511719 C 194.300781 185.222656 193.898438 185.796875 194.070312 186.203125 C 194.417969 186.835938 194.53125 187.527344 194.589844 188.21875 Z M 197.761719 193.925781 C 197.703125 193.925781 197.703125 193.867188 197.644531 193.867188 C 197.875 193.925781 197.875 193.984375 197.761719 193.925781 Z M 197.242188 193.636719 C 197.183594 193.636719 197.125 193.636719 197.066406 193.636719 C 196.894531 193.582031 196.894531 193.523438 197.242188 193.636719 Z M 197.242188 193.636719 " fill-opacity="1" fill-rule="nonzero"/></svg>