<svg xmlns="http://www.w3.org/2000/svg" xmlns:xlink="http://www.w3.org/1999/xlink" width="500" zoomAndPan="magnify" viewBox="0 0 375 374.999991" height="500" preserveAspectRatio="xMidYMid meet" version="1.0"><defs><clipPath id="d39c1878d6"><path d="M 37.5 68 L 330.75 68 L 330.75 289 L 37.5 289 Z M 37.5 68 " clip-rule="nonzero"/></clipPath></defs><g clip-path="url(#d39c1878d6)"><path fill="#000000" d="M 103.605469 217.90625 C 106.8125 219.398438 110.210938 221.007812 113.917969 222.527344 C 107.738281 218.191406 101.746094 213.46875 95.664062 209.566406 C 84.609375 202.46875 73.839844 194.902344 62.984375 187.519531 C 59.734375 194.78125 55.449219 201.183594 49.851562 206.675781 C 55.671875 208.636719 61.011719 211.660156 67.382812 212.605469 C 75.855469 213.878906 84.054688 215.382812 92.339844 217.667969 C 95.683594 218.597656 99.0625 219.4375 102.441406 220.253906 C 98.109375 218.171875 94.214844 216.304688 90.636719 214.859375 C 88.863281 214.058594 87.132812 213.554688 85.523438 212.925781 C 83.894531 212.355469 82.3125 212.015625 80.855469 211.566406 C 77.867188 210.691406 75.265625 209.9375 73.019531 209.28125 C 70.742188 208.65625 68.886719 207.996094 67.34375 207.40625 C 65.792969 206.816406 64.554688 206.332031 63.613281 205.933594 C 61.6875 205.152344 60.90625 204.722656 60.972656 204.542969 C 61.03125 204.363281 61.925781 204.476562 63.933594 204.953125 C 64.925781 205.191406 66.203125 205.523438 67.792969 205.960938 C 68.582031 206.191406 69.457031 206.4375 70.402344 206.703125 C 71.351562 206.941406 72.410156 207.1875 73.535156 207.457031 C 75.789062 208.007812 78.390625 208.65625 81.371094 209.40625 C 82.894531 209.796875 84.550781 210.121094 86.234375 210.679688 C 87.902344 211.261719 89.738281 211.785156 91.566406 212.554688 C 95.273438 213.984375 99.261719 215.839844 103.605469 217.90625 Z M 114.859375 238.8125 C 116.488281 238.964844 122.265625 240.144531 125.484375 239.5625 C 120.707031 238.515625 116.144531 236.917969 111.421875 235.308594 C 103.375 232.558594 95.453125 231.457031 86.96875 230.703125 C 78.988281 230 70.03125 229.808594 62.355469 227.289062 C 56.554688 225.375 51.097656 222.585938 45.273438 220.902344 C 45.023438 221.332031 44.75 221.757812 44.460938 222.1875 C 57.144531 229.648438 71.925781 232.132812 86.292969 234.472656 C 95.777344 236.023438 105.269531 237.972656 114.859375 238.8125 Z M 130.152344 226.210938 C 128.171875 224.195312 126.160156 222.226562 124.554688 220.492188 C 115.734375 210.976562 106.878906 201.507812 98.003906 192.046875 C 87.378906 180.695312 76.867188 169.199219 66.097656 157.953125 C 60.601562 162.605469 55.367188 167.515625 50.585938 172.882812 C 65.792969 182.644531 80.351562 193.371094 95.558594 203.136719 C 106.59375 210.214844 117.847656 220.492188 130.152344 226.210938 Z M 130.4375 235.082031 C 131.066406 234.652344 131.761719 234.253906 132.503906 233.902344 C 127.113281 232.808594 122.011719 230.828125 116.59375 229.464844 C 107.992188 227.335938 99.460938 225.136719 90.910156 222.832031 C 82.609375 220.597656 74.410156 219.238281 65.953125 217.769531 C 59.648438 216.6875 54.355469 213.820312 48.613281 211.890625 C 48.386719 213.375 48.023438 214.753906 47.558594 216.058594 C 53.050781 217.886719 58.136719 220.757812 63.78125 222.101562 C 72.570312 224.214844 81.511719 224.765625 90.464844 225.660156 C 97.128906 226.316406 103.699219 227.019531 110.070312 229.179688 C 116.792969 231.484375 123.363281 234.128906 130.4375 235.082031 Z M 145.519531 248.613281 C 145.519531 248.613281 145.195312 245.789062 144.96875 244.988281 C 144.824219 244.464844 144.644531 243.96875 144.445312 243.464844 C 143.570312 242.96875 143.234375 242.058594 143.320312 241.144531 C 142.035156 238.925781 140.167969 237.097656 137.636719 236.460938 C 137.113281 236.9375 136.617188 237.441406 136.132812 237.945312 C 135.933594 238.335938 135.628906 238.667969 135.179688 238.964844 C 134.933594 239.25 134.683594 239.535156 134.425781 239.820312 C 134.304688 239.964844 134.160156 240.085938 134.019531 240.171875 C 133.21875 241.039062 132.425781 241.875 131.636719 242.734375 C 132.179688 246.074219 137.960938 249.613281 141.570312 249.308594 C 142.683594 249.222656 144.578125 249.28125 145.519531 248.613281 Z M 218.546875 142.972656 C 210.726562 128.078125 199.035156 113.984375 185.988281 103.382812 C 175.363281 94.753906 163.414062 86.757812 156.507812 74.710938 C 138.941406 86.351562 122.878906 99.5 106.9375 113.289062 C 93.160156 125.195312 77.941406 136.234375 65.554688 149.652344 C 78.703125 163.175781 91.40625 177.136719 104.289062 190.90625 C 112.964844 200.164062 121.621094 209.40625 130.226562 218.722656 C 133.589844 222.347656 137.703125 225.964844 140.757812 230.019531 C 154.613281 217.828125 164.039062 200.507812 176.429688 186.882812 C 190.101562 171.863281 205.984375 158.988281 218.546875 142.972656 Z M 248.445312 271.121094 C 248.28125 269.570312 248.160156 268.007812 248.027344 266.457031 C 241.875 266.105469 236.160156 264.296875 230.210938 262.527344 C 222.316406 260.203125 214.183594 259.109375 206.101562 257.644531 C 202.765625 257.035156 199.445312 256.359375 196.113281 255.675781 C 198.855469 256.503906 201.566406 257.339844 204.289062 258.175781 C 218.8125 262.699219 233.324219 268.761719 248.445312 271.121094 Z M 256.253906 172.253906 C 265.554688 155.953125 276.152344 139.964844 287.332031 124.785156 C 265.71875 130.726562 245.167969 139.925781 223.59375 146.046875 C 223.304688 146.113281 223.050781 146.152344 222.800781 146.152344 C 210.640625 161.53125 195.519531 173.882812 182.34375 188.347656 C 170.296875 201.59375 160.824219 218.132812 147.9375 230.683594 C 161.945312 228.410156 175.078125 223.082031 188.636719 218.949219 C 201.339844 215.097656 214.394531 213.089844 227.34375 210.375 C 229.640625 209.671875 230.960938 209.195312 232.980469 206.496094 C 235.257812 203.46875 238.246094 201.109375 240.796875 198.375 C 247.757812 190.933594 251.261719 181 256.253906 172.253906 Z M 302.585938 131.886719 C 302.261719 131.230469 301.988281 130.5625 301.769531 129.867188 C 297.816406 130.097656 293.894531 130.742188 289.960938 131.238281 C 289.695312 131.277344 289.4375 131.257812 289.207031 131.230469 C 277.6875 146.988281 266.613281 163.640625 257.757812 180.800781 C 253.414062 189.222656 249.570312 197.359375 242.710938 204.03125 C 239.550781 207.113281 237.292969 211.121094 234.277344 214.144531 C 232.449219 215.972656 228.65625 215.507812 226.277344 216.363281 C 225.648438 216.589844 225.117188 216.570312 224.628906 216.410156 C 210.945312 219.226562 197.292969 221.632812 183.953125 226.109375 C 181.191406 227.039062 178.457031 227.945312 175.695312 228.859375 C 177.316406 228.46875 178.867188 228.078125 180.410156 227.714844 C 186.21875 226.289062 191.625 225.25 196.539062 224.765625 C 206.261719 224.15625 213.480469 222.328125 219.191406 221.148438 C 224.859375 219.941406 228.847656 219.3125 231.410156 219.09375 C 233.972656 218.933594 235.074219 218.949219 235.09375 219.152344 C 235.09375 219.617188 230.707031 220.066406 219.621094 223.015625 C 216.8125 223.710938 213.574219 224.566406 209.777344 225.375 C 207.898438 225.765625 205.863281 226.125 203.679688 226.441406 C 201.519531 226.699219 199.226562 226.964844 196.796875 227.230469 C 192.035156 227.773438 186.808594 228.820312 181.027344 230.265625 C 179.941406 230.542969 178.820312 230.828125 177.667969 231.113281 C 183.304688 230.550781 188.921875 229.953125 194.519531 229.265625 C 209.261719 227.488281 224.269531 226.429688 238.695312 222.777344 C 245.464844 215.980469 249.550781 206.867188 255.214844 199.175781 C 260.765625 191.6875 266.46875 184.339844 272.230469 177.03125 C 283.484375 162.746094 291.960938 146.597656 302.585938 131.886719 Z M 305.492188 150.261719 C 302.585938 150.234375 299.710938 150.261719 296.816406 150.605469 C 296.683594 150.625 296.578125 150.625 296.457031 150.625 C 289.921875 160.863281 283.570312 171.234375 276.019531 180.820312 C 269.210938 189.488281 261.863281 198.089844 255.902344 207.390625 C 251.785156 213.820312 248.28125 220.558594 242.949219 226.070312 C 242.710938 226.800781 242.160156 227.429688 241.179688 227.695312 C 225.992188 231.683594 210.082031 232.789062 194.519531 234.632812 C 194.320312 234.652344 194.113281 234.671875 193.910156 234.699219 C 194.320312 234.71875 194.730469 234.71875 195.148438 234.738281 C 210.355469 235.273438 225.324219 239.03125 240.484375 239.085938 C 247.082031 232.074219 250.472656 223.261719 256.003906 215.46875 C 261.679688 207.472656 267.402344 199.5 273.375 191.742188 C 284.019531 177.886719 294.542969 163.871094 305.492188 150.261719 Z M 311.355469 156.078125 C 310.300781 155.773438 309.242188 155.554688 308.175781 155.410156 C 295.777344 170.789062 283.609375 186.613281 271.984375 202.527344 C 266.566406 209.929688 260.910156 217.179688 256.386719 225.175781 C 252.644531 231.789062 248.960938 238.261719 243.558594 243.683594 C 242.875 244.359375 242.101562 244.558594 241.390625 244.425781 C 241.285156 244.445312 241.179688 244.464844 241.066406 244.464844 C 224.554688 244.503906 208.367188 240.230469 191.789062 240.011719 C 181.410156 239.867188 171.011719 240.144531 160.640625 240.371094 C 165.46875 240.695312 170.296875 240.90625 175.164062 241.496094 C 182.875 242.410156 190.53125 243.683594 198.1875 244.894531 C 211.925781 247.082031 226.507812 246.539062 239.960938 250.296875 C 264.613281 219.542969 288.105469 187.878906 311.355469 156.078125 Z M 312.195312 170.265625 C 310.851562 170.019531 309.511719 169.828125 308.148438 169.675781 C 308.101562 169.675781 308.0625 169.664062 308.003906 169.664062 C 286.972656 198.300781 265.671875 226.765625 243.4375 254.496094 C 242.980469 255.644531 241.875 256.464844 240.351562 256 C 225.5625 251.363281 208.898438 252.050781 193.589844 249.546875 C 192.691406 249.402344 191.796875 249.289062 190.902344 249.164062 C 195.378906 250.136719 199.835938 251.070312 204.320312 251.886719 C 212.460938 253.351562 220.984375 254.210938 228.90625 256.53125 C 235.113281 258.378906 241.160156 260.59375 247.597656 261.0625 C 262.289062 248.832031 271.515625 230.199219 282.535156 214.839844 C 292.816406 200.507812 303.578125 185.71875 312.195312 170.265625 Z M 315.433594 182.390625 C 315.421875 182.359375 315.421875 182.339844 315.402344 182.324219 C 315.082031 181.371094 314.824219 180.191406 314.632812 178.925781 C 314.347656 178.5625 314.183594 178.15625 314.148438 177.6875 C 305.007812 193.257812 293.988281 208.167969 283.449219 222.671875 C 273.46875 236.386719 265.679688 252.230469 252.871094 263.582031 C 252.890625 263.734375 252.890625 263.886719 252.871094 264.03125 C 253.089844 264.421875 253.234375 264.867188 253.292969 265.332031 C 253.464844 267.105469 253.539062 268.894531 253.738281 270.652344 C 266.136719 255.710938 279.269531 241.210938 289.085938 224.394531 C 297.4375 210.074219 304.902344 195.246094 315.433594 182.390625 Z M 324.394531 181.464844 C 323.109375 181.160156 321.820312 180.875 320.535156 180.589844 C 320.546875 180.636719 320.546875 180.695312 320.574219 180.734375 C 320.746094 181.265625 320.746094 181.769531 320.640625 182.199219 C 320.984375 183.054688 320.945312 184.09375 320.175781 184.988281 C 307.460938 200.089844 299.882812 218.351562 289.027344 234.683594 C 278.90625 249.9375 266.433594 263.488281 254.882812 277.648438 C 253.480469 279.390625 251.425781 278.417969 250.710938 276.8125 C 234.238281 274.679688 218.648438 268.246094 202.863281 263.363281 C 185.523438 257.996094 168.117188 252.828125 150.910156 247.0625 C 150.832031 247.042969 150.785156 247.003906 150.710938 246.96875 C 150.75 247.59375 150.75 248.167969 150.671875 248.71875 C 184.988281 260.519531 217.289062 279.238281 253.882812 283.207031 C 253.949219 283.207031 253.988281 283.226562 254.054688 283.242188 C 261.785156 276.847656 266.097656 268.027344 271.753906 259.898438 C 277.601562 251.476562 284.589844 243.894531 290.730469 235.671875 C 297.691406 226.355469 304.128906 216.6875 310.625 207.085938 C 316.117188 198.984375 321.316406 190.761719 324.394531 181.464844 Z M 328.542969 176.917969 C 329.964844 177.277344 330.800781 178.847656 330.410156 180.230469 C 327.402344 191.050781 321.59375 200.59375 315.25 209.785156 C 308.671875 219.351562 302.398438 229.125 295.359375 238.375 C 288.113281 247.917969 279.886719 256.855469 273.515625 267.027344 C 268.765625 274.613281 264.148438 282.226562 256.976562 287.78125 C 256.394531 288.230469 255.777344 288.390625 255.167969 288.371094 C 254.804688 288.535156 254.394531 288.628906 253.882812 288.574219 C 216.15625 284.480469 183.09375 265.277344 147.652344 253.316406 C 146.042969 254.226562 143.929688 254.65625 141.570312 254.675781 C 136.09375 254.734375 129.417969 251.601562 127.132812 246.3125 C 126.914062 245.769531 126.734375 245.234375 126.589844 244.730469 C 110.765625 244.558594 95.003906 241.484375 79.457031 238.746094 C 65.449219 236.300781 51.402344 233.207031 39.347656 225.335938 C 38.195312 224.585938 37.5 222.910156 38.386719 221.671875 C 39.226562 220.472656 40.023438 219.3125 40.757812 218.132812 C 40.671875 217.039062 41.226562 215.878906 42.226562 215.324219 C 42.769531 214.039062 43.175781 212.660156 43.394531 211.101562 C 43.40625 210.890625 43.460938 210.710938 43.519531 210.511719 C 41.75 209.9375 40.566406 207.722656 42.386719 206.226562 C 49.59375 200.25 54.757812 193.027344 58.488281 184.484375 C 54.148438 181.550781 49.746094 178.667969 45.300781 175.871094 C 44.214844 175.183594 43.910156 174.101562 44.109375 173.109375 C 44.109375 172.519531 44.300781 171.910156 44.765625 171.359375 C 50.082031 165.03125 56.089844 159.417969 62.375 154.085938 C 61.90625 153.628906 61.460938 153.144531 60.992188 152.660156 C 59.34375 152.128906 58.15625 149.851562 59.667969 148.121094 C 73.839844 131.992188 92.121094 118.925781 108.402344 104.972656 C 123.46875 92.050781 138.710938 79.90625 155.328125 69.019531 C 155.8125 68.714844 156.269531 68.59375 156.699219 68.59375 C 157.8125 68.097656 159.183594 68.269531 159.890625 69.707031 C 167.164062 84.292969 181.960938 92.269531 193.625 102.871094 C 205.195312 113.359375 215.859375 126.355469 223.164062 140.230469 C 223.335938 140.289062 223.496094 140.347656 223.660156 140.429688 C 247.273438 133.5625 269.707031 123.160156 293.710938 117.640625 C 296.941406 116.886719 298.367188 121.570312 295.558594 122.65625 C 294.882812 123.570312 294.199219 124.480469 293.523438 125.394531 C 296.988281 124.910156 300.464844 124.445312 303.96875 124.398438 C 305.671875 124.359375 306.53125 125.644531 306.566406 126.964844 C 306.691406 127.679688 306.871094 128.402344 307.15625 129.097656 C 307.1875 129.144531 307.460938 129.707031 307.492188 129.773438 C 307.691406 130.117188 307.882812 130.457031 308.082031 130.78125 C 308.777344 131.953125 308.472656 133.085938 307.738281 133.855469 C 305.074219 137.480469 302.550781 141.222656 300.101562 144.988281 C 303.664062 144.789062 307.261719 144.933594 310.84375 144.953125 C 313.355469 144.953125 314.023438 147.796875 312.878906 149.339844 C 312.765625 149.605469 312.644531 149.871094 312.433594 150.121094 C 312.253906 150.339844 312.089844 150.566406 311.910156 150.785156 C 313.59375 151.195312 315.222656 151.726562 316.957031 152.460938 C 318.203125 153.003906 318.707031 155.058594 317.925781 156.125 C 315.8125 159.007812 313.71875 161.882812 311.605469 164.765625 C 313.394531 165.011719 315.183594 165.355469 316.917969 165.90625 C 317.347656 166.03125 317.691406 166.25 317.957031 166.496094 C 318.671875 166.925781 319.175781 167.675781 319.175781 168.789062 C 319.175781 171.273438 319.203125 173.1875 319.355469 174.898438 C 322.449219 175.488281 325.488281 176.175781 328.542969 176.917969 " fill-opacity="1" fill-rule="nonzero"/></g></svg>