<svg xmlns="http://www.w3.org/2000/svg" xmlns:xlink="http://www.w3.org/1999/xlink" width="500" zoomAndPan="magnify" viewBox="0 0 375 374.999991" height="500" preserveAspectRatio="xMidYMid meet" version="1.0"><defs><clipPath id="c7ae3cdf9a"><path d="M 9.882812 79.296875 L 365.382812 79.296875 L 365.382812 285.546875 L 9.882812 285.546875 Z M 9.882812 79.296875 " clip-rule="nonzero"/></clipPath></defs><g clip-path="url(#c7ae3cdf9a)"><path fill="#000000" d="M 151.414062 80.304688 C 150.6875 80.667969 148.945312 82.445312 147.308594 84.445312 C 136.304688 98.066406 84.261719 135.667969 21.941406 174.976562 C 16.964844 178.136719 12.28125 181.261719 11.589844 181.953125 C 10.285156 183.261719 10.101562 184.023438 9.992188 189.183594 C 9.882812 194.269531 12.933594 195.539062 26.84375 196.265625 C 42.898438 197.101562 54.226562 198.265625 63.886719 200.042969 C 68.683594 200.953125 78.597656 203.496094 80.777344 204.402344 L 81.902344 204.875 L 82.738281 211.015625 C 83.171875 214.394531 84.117188 221.734375 84.808594 227.328125 C 86.804688 244.039062 87.605469 248.433594 89.457031 252.976562 C 93.125 262.09375 101.585938 268.742188 118 275.390625 C 135.324219 282.402344 149.308594 285.382812 164.851562 285.417969 C 180.902344 285.417969 197.175781 282.4375 216.421875 275.9375 C 233.78125 270.085938 253.574219 260.421875 269.226562 250.140625 L 273.875 247.089844 L 278.234375 251.667969 C 280.667969 254.175781 283.609375 256.972656 284.84375 257.84375 C 289.382812 261.078125 294.648438 263.113281 299.808594 263.65625 C 302.894531 263.949219 308.269531 263.222656 311.828125 262.023438 C 317.855469 260.023438 321.125 257.191406 324.066406 251.523438 C 325.195312 249.34375 325.992188 248.21875 326.390625 248.21875 C 326.71875 248.21875 328.898438 247.5625 331.222656 246.800781 C 338.59375 244.292969 341.9375 242.222656 343.242188 239.207031 C 343.824219 237.972656 344.332031 237.464844 346.039062 236.628906 C 349.019531 235.101562 351.523438 234.449219 355.808594 234.121094 C 358.53125 233.867188 359.695312 233.613281 360.238281 233.140625 C 361.113281 232.378906 361.691406 230.414062 361.691406 228.382812 C 361.691406 227.253906 362.054688 226.347656 363.109375 224.675781 C 364.996094 221.769531 365.398438 220.28125 364.925781 217.992188 C 364.417969 215.703125 361.945312 212.03125 359.984375 210.652344 C 358.460938 209.597656 358.386719 209.597656 353.957031 209.671875 C 350.6875 209.707031 349.34375 209.597656 349.089844 209.273438 C 348.871094 209.015625 348.582031 208 348.4375 206.984375 C 348.074219 204.476562 346.984375 202.332031 344.914062 200.042969 C 341.136719 195.9375 339.503906 197.5 332.421875 212.070312 C 330.605469 215.847656 328.714844 220.023438 328.242188 221.296875 C 327.625 223.003906 326.9375 224.128906 325.703125 225.292969 C 324.429688 226.566406 323.851562 227.546875 323.269531 229.324219 C 322.289062 232.378906 321.742188 236.808594 321.742188 241.894531 L 321.742188 245.929688 L 318.511719 249.050781 C 314.914062 252.539062 313.609375 253.304688 309.503906 254.429688 C 303.4375 256.136719 297.230469 255.375 291.960938 252.320312 C 289.675781 250.976562 282.375 244.148438 281.503906 242.550781 C 281.140625 241.859375 281.46875 241.460938 285.136719 238.371094 C 292.617188 232.050781 304.273438 219.082031 308.632812 212.25 C 310.8125 208.910156 311.285156 206.875 311.285156 201.242188 C 311.285156 195.613281 310.519531 189.800781 309.03125 183.515625 C 308.015625 179.335938 302.386719 160.410156 300.644531 155.394531 C 300.242188 154.195312 299.878906 153.070312 299.84375 152.890625 C 299.808594 152.707031 300.605469 151.90625 301.585938 151.144531 C 304.492188 148.855469 319.308594 139.121094 329.371094 132.871094 C 339.71875 126.441406 341.71875 124.804688 341.71875 122.773438 C 341.71875 122.046875 341.898438 121.355469 342.082031 121.246094 C 342.300781 121.136719 342.445312 120.375 342.445312 119.574219 C 342.445312 117.46875 341.136719 116.339844 335.472656 113.617188 C 324.140625 108.167969 313.027344 105.371094 275.402344 98.394531 C 230.839844 90.113281 217.875 88.078125 187.914062 84.734375 C 173.386719 83.101562 164.851562 81.863281 158.894531 80.519531 C 154.210938 79.46875 153.085938 79.429688 151.414062 80.304688 Z M 158.496094 87.640625 C 163.179688 88.660156 172.585938 89.929688 187.550781 91.636719 C 211.484375 94.363281 228.226562 96.976562 261.820312 103.261719 C 306.125 111.546875 317.457031 114.089844 327.625 117.976562 L 331.1875 119.355469 L 326.898438 121.71875 C 314.734375 128.476562 296.03125 141.300781 282.339844 152.234375 C 275.691406 157.539062 269.882812 162.371094 257.207031 173.089844 C 252.738281 176.828125 249 179.917969 248.816406 179.917969 C 248.636719 179.917969 248.128906 179.226562 247.65625 178.355469 C 246.09375 175.558594 240.5 167.421875 238.066406 164.441406 C 229.605469 153.941406 219.546875 147.113281 208.105469 144.097656 C 202.367188 142.609375 196.738281 142.027344 189.292969 142.207031 L 182.683594 142.390625 L 182.210938 141.261719 C 181.957031 140.644531 181.085938 139.410156 180.285156 138.539062 C 177.273438 135.234375 172.984375 134.324219 169.28125 136.175781 C 162.308594 139.628906 162.417969 151.328125 169.390625 155.433594 C 171.535156 156.667969 174.476562 156.957031 176.65625 156.160156 C 178.324219 155.503906 180.757812 153.105469 181.8125 151.035156 C 182.136719 150.417969 182.574219 149.835938 182.792969 149.691406 C 183.519531 149.183594 194.703125 149.402344 198.445312 149.945312 C 216.167969 152.597656 227.355469 161.0625 239.410156 180.898438 L 242.207031 185.550781 L 241.191406 186.457031 C 240.644531 186.964844 236.035156 190.890625 230.949219 195.175781 C 218.164062 206.003906 211.519531 212.03125 203.890625 219.660156 C 194.632812 228.960938 188.675781 236.082031 183.191406 244.292969 C 182.03125 246.074219 180.976562 247.492188 180.792969 247.492188 C 180.648438 247.492188 180.105469 246.765625 179.597656 245.890625 C 177.960938 243.128906 175.566406 240.480469 170.769531 236.15625 C 161.472656 227.800781 154.683594 222.824219 146.328125 218.207031 C 129.914062 209.164062 101.332031 198.664062 71.878906 190.851562 C 56.988281 186.929688 39.847656 184.058594 26.734375 183.332031 C 24.191406 183.1875 22.160156 182.933594 22.195312 182.789062 C 22.269531 182.640625 27.460938 179.191406 33.746094 175.121094 C 57.496094 159.828125 85.0625 141.226562 103.109375 128.367188 C 128.351562 110.382812 146.074219 96.289062 151.632812 89.785156 C 152.976562 88.1875 154.355469 86.914062 154.683594 86.914062 C 155.007812 86.914062 156.714844 87.242188 158.496094 87.640625 Z M 338.59375 124.371094 C 338.011719 124.953125 336.125 126.441406 334.417969 127.605469 L 331.257812 129.746094 L 331.039062 128.621094 C 330.640625 126.585938 330.785156 126.332031 332.566406 125.425781 C 334.5625 124.441406 337.976562 123.28125 338.957031 123.28125 C 339.574219 123.246094 339.539062 123.390625 338.59375 124.371094 Z M 329.371094 127.496094 C 329.371094 127.675781 329.515625 128.402344 329.695312 129.128906 L 330.023438 130.511719 L 326.863281 132.472656 C 325.15625 133.5625 323.488281 134.507812 323.195312 134.578125 C 322.796875 134.652344 322.613281 134.214844 322.46875 132.945312 L 322.25 131.199219 L 325.519531 129.203125 C 328.824219 127.242188 329.371094 126.984375 329.371094 127.496094 Z M 320.800781 132.617188 C 320.90625 132.796875 321.089844 133.597656 321.234375 134.398438 L 321.453125 135.8125 L 317.023438 138.648438 C 314.550781 140.171875 312.445312 141.335938 312.265625 141.15625 C 312.117188 141.007812 311.902344 140.28125 311.757812 139.519531 L 311.5 138.210938 L 315.824219 135.269531 C 320.289062 132.21875 320.507812 132.144531 320.800781 132.617188 Z M 310.667969 141.082031 L 310.921875 142.390625 L 306.308594 145.550781 C 303.765625 147.292969 301.660156 148.675781 301.625 148.601562 C 301.585938 148.53125 301.367188 147.875 301.152344 147.113281 L 300.75 145.730469 L 305.328125 142.5 C 307.832031 140.71875 310.011719 139.375 310.15625 139.519531 C 310.304688 139.664062 310.519531 140.355469 310.667969 141.082031 Z M 300.207031 148.273438 C 300.859375 149.582031 300.859375 149.691406 300.28125 150.054688 C 299.769531 150.382812 299.625 150.199219 299.261719 149 C 298.898438 147.765625 298.9375 146.859375 299.40625 146.859375 C 299.445312 146.859375 299.84375 147.476562 300.207031 148.273438 Z M 297.992188 149.765625 C 298.425781 150.527344 298.644531 151.21875 298.5 151.289062 C 298.320312 151.363281 296.867188 152.417969 295.269531 153.6875 C 293.667969 154.960938 292.253906 156.011719 292.109375 156.050781 C 291.960938 156.085938 291.671875 155.433594 291.417969 154.632812 C 291.054688 153.359375 291.054688 153.035156 291.5625 152.34375 C 292.035156 151.726562 296.503906 148.492188 297.046875 148.347656 C 297.15625 148.347656 297.59375 148.964844 297.992188 149.765625 Z M 290.363281 155.941406 C 291.164062 156.628906 290.945312 157.140625 289.128906 158.519531 C 288.1875 159.246094 286.585938 160.519531 285.570312 161.355469 L 283.683594 162.84375 L 282.300781 160.007812 L 285.933594 157.101562 C 288.875 154.777344 289.636719 154.34375 289.710938 154.851562 C 289.785156 155.214844 290.074219 155.722656 290.363281 155.941406 Z M 294.324219 158.808594 C 294.941406 160.046875 300.644531 178.390625 301.914062 183.261719 C 303.65625 189.945312 304.09375 193.214844 304.09375 199.71875 L 304.128906 205.894531 L 302.675781 208.507812 C 301.878906 209.960938 299.664062 213.160156 297.773438 215.59375 C 294.359375 220.023438 283.574219 231.214844 279.507812 234.59375 L 277.363281 236.375 L 276.746094 235.539062 C 275.039062 233.285156 269.628906 222.824219 264.253906 211.34375 C 260.984375 204.332031 257.460938 196.957031 256.40625 194.921875 C 255.390625 192.851562 254.554688 191.035156 254.554688 190.851562 C 254.554688 190.671875 256.734375 188.671875 259.386719 186.421875 C 263.453125 182.898438 267.230469 179.628906 277.398438 170.617188 C 280.085938 168.21875 288.585938 161.207031 290.800781 159.5 C 291.925781 158.628906 292.945312 157.828125 292.980469 157.648438 C 293.199219 157.210938 293.742188 157.71875 294.324219 158.808594 Z M 281.867188 162.480469 L 282.449219 163.898438 L 279.144531 166.730469 C 277.289062 168.292969 275.367188 169.925781 274.820312 170.398438 L 273.839844 171.234375 L 273.078125 169.710938 C 272.640625 168.875 272.425781 168.074219 272.605469 167.929688 C 273.40625 167.128906 280.921875 161.0625 281.105469 161.0625 C 281.210938 161.027344 281.574219 161.679688 281.867188 162.480469 Z M 271.878906 170.945312 L 272.640625 172.507812 L 268.101562 176.503906 C 260.585938 183.042969 261.128906 182.640625 260.546875 181.878906 C 260.292969 181.480469 259.785156 180.753906 259.496094 180.207031 L 258.914062 179.226562 L 264.796875 174.324219 C 268.066406 171.632812 270.789062 169.417969 270.898438 169.417969 C 271.007812 169.417969 271.445312 170.109375 271.878906 170.945312 Z M 259.640625 183.476562 C 259.640625 183.660156 258.261719 184.96875 256.554688 186.421875 L 253.503906 189.035156 L 252.558594 187.148438 C 252.011719 186.128906 251.722656 185.148438 251.90625 185.003906 C 252.050781 184.824219 253.394531 183.695312 254.882812 182.496094 L 257.570312 180.316406 L 258.625 181.734375 C 259.167969 182.535156 259.640625 183.332031 259.640625 183.476562 Z M 15.839844 188.636719 C 16.589844 188.636719 17.015625 189.328125 17.109375 190.707031 C 17.183594 191.871094 17.21875 192.886719 17.148438 192.960938 C 17.074219 193.03125 16.386719 192.921875 15.550781 192.667969 C 13.589844 192.089844 12.316406 190.707031 12.316406 189.144531 C 12.316406 187.984375 12.355469 187.984375 13.480469 188.308594 C 14.132812 188.492188 15.1875 188.636719 15.839844 188.636719 Z M 22.558594 191.253906 C 22.632812 192.523438 22.667969 193.613281 22.59375 193.6875 C 22.558594 193.757812 21.433594 193.6875 20.125 193.542969 C 17.945312 193.324219 17.765625 193.25 17.910156 192.523438 C 18.019531 192.089844 18.199219 191.105469 18.308594 190.34375 L 18.527344 189 L 22.414062 189 Z M 25.753906 191.761719 L 25.753906 194.085938 L 23.394531 194.085938 L 23.503906 191.617188 L 23.613281 189.144531 L 24.703125 189.289062 C 25.753906 189.4375 25.753906 189.472656 25.753906 191.761719 Z M 29.605469 189.582031 C 30.332031 189.761719 30.367188 189.835938 29.859375 192.015625 C 29.566406 193.25 29.277344 194.304688 29.242188 194.339844 C 29.167969 194.414062 28.625 194.339844 28.007812 194.230469 C 26.734375 193.976562 26.625 193.503906 27.0625 190.707031 C 27.316406 189.289062 27.789062 189.074219 29.605469 189.582031 Z M 37.121094 190.308594 C 39.410156 190.5625 39.445312 190.597656 38.972656 193.46875 L 38.71875 194.8125 L 34.871094 194.59375 C 32.765625 194.449219 30.984375 194.304688 30.910156 194.269531 C 30.875 194.230469 31.09375 193.179688 31.421875 191.90625 L 32.074219 189.652344 L 33.527344 189.871094 C 34.363281 189.980469 35.960938 190.164062 37.121094 190.308594 Z M 48.960938 192.125 C 51.648438 192.597656 53.972656 192.996094 54.117188 192.996094 C 54.265625 192.996094 54.445312 193.832031 54.519531 194.847656 C 54.628906 196.519531 54.554688 196.664062 53.902344 196.484375 C 53.539062 196.375 50.597656 196.011719 47.363281 195.683594 C 44.167969 195.359375 41.296875 194.996094 41.007812 194.847656 C 40.535156 194.667969 40.5 194.304688 40.753906 192.707031 L 41.082031 190.78125 L 42.570312 191 C 43.40625 191.144531 46.273438 191.617188 48.960938 192.125 Z M 245.839844 192.632812 C 246.855469 194.777344 247.183594 194.195312 242.207031 198.410156 L 238.757812 201.316406 L 237.996094 199.246094 L 237.195312 197.175781 L 238.683594 195.828125 L 240.210938 194.523438 L 240.683594 195.828125 C 241.480469 198.191406 241.953125 198.117188 241.699219 195.722656 L 241.480469 193.542969 L 243.042969 192.195312 C 243.878906 191.433594 244.675781 190.816406 244.785156 190.816406 C 244.894531 190.816406 245.367188 191.652344 245.839844 192.632812 Z M 59.785156 194.304688 C 65.195312 195.503906 64.976562 195.429688 64.722656 196.738281 C 64.613281 197.390625 64.46875 197.9375 64.433594 198.011719 C 64.324219 198.15625 56.296875 196.773438 56.078125 196.554688 C 55.714844 196.230469 56.371094 193.722656 56.84375 193.722656 C 57.097656 193.722656 58.402344 193.976562 59.785156 194.304688 Z M 71.515625 197.320312 L 76.417969 198.699219 L 76.527344 199.828125 C 76.597656 200.480469 76.5625 200.988281 76.492188 200.988281 C 76.417969 200.988281 74.492188 200.515625 72.203125 199.933594 C 69.917969 199.355469 67.628906 198.773438 67.085938 198.664062 C 66.25 198.480469 66.066406 198.226562 66.066406 197.390625 C 66.066406 196.59375 66.320312 195.832031 66.574219 195.902344 C 66.613281 195.902344 68.828125 196.558594 71.515625 197.320312 Z M 249.542969 200.152344 C 250.523438 202.332031 253.792969 209.308594 256.808594 215.664062 C 261.964844 226.710938 265.632812 233.902344 268.792969 239.132812 L 270.246094 241.496094 L 269.191406 242.332031 C 265.378906 245.417969 251.578125 253.484375 241.480469 258.535156 C 230.984375 263.765625 223.578125 266.890625 214.28125 270.015625 C 196.847656 275.863281 182.902344 278.550781 167.9375 278.988281 C 154.464844 279.351562 142.769531 277.535156 128.898438 272.921875 C 114.332031 268.089844 104.453125 263.148438 99.226562 258.097656 C 94.066406 253.121094 92.652344 248.945312 89.164062 228.054688 C 88.4375 223.839844 87.203125 217.15625 86.40625 213.195312 C 85.605469 209.199219 85.023438 205.894531 85.097656 205.820312 C 85.28125 205.601562 108.777344 213.632812 114.078125 215.738281 C 128.933594 221.625 136.34375 225.839844 152.140625 237.5 C 160.636719 243.785156 172.113281 251.8125 174.183594 252.941406 C 174.949219 253.339844 176.035156 253.667969 176.65625 253.667969 C 177.234375 253.667969 178.070312 253.921875 178.433594 254.210938 C 179.558594 255.082031 181.304688 254.863281 182.902344 253.703125 C 183.699219 253.121094 188.421875 248.6875 193.398438 243.855469 C 202.003906 235.5 209.121094 229 216.785156 222.605469 C 218.675781 221.007812 224.410156 216.101562 229.496094 211.707031 C 239.191406 203.3125 247.402344 196.300781 247.582031 196.300781 C 247.65625 196.265625 248.527344 198.007812 249.542969 200.152344 Z M 237.125 202.878906 C 236.6875 203.242188 236.214844 203.53125 236.070312 203.53125 C 235.960938 203.53125 235.417969 202.695312 234.871094 201.679688 L 233.890625 199.828125 L 234.871094 198.992188 L 235.851562 198.117188 L 236.90625 200.191406 L 237.921875 202.222656 Z M 80.160156 200.988281 C 80.265625 201.96875 80.195312 202.152344 79.6875 201.933594 C 79.359375 201.824219 78.921875 201.714844 78.742188 201.714844 C 78.5625 201.714844 78.414062 201.132812 78.414062 200.445312 C 78.414062 199.316406 78.488281 199.207031 79.25 199.5 C 79.796875 199.71875 80.085938 200.152344 80.160156 200.988281 Z M 342.625 201.496094 C 343.207031 202.371094 343.132812 202.515625 341.210938 205.820312 C 338.632812 210.179688 335.179688 216.9375 335.179688 217.554688 C 335.179688 217.84375 335.324219 218.0625 335.472656 218.0625 C 335.90625 218.0625 340.773438 210.578125 342.625 206.984375 L 344.261719 203.894531 L 344.769531 204.949219 C 345.894531 207.054688 345.640625 208.328125 343.679688 210.835938 C 341.246094 213.921875 338.085938 218.464844 338.085938 218.863281 C 338.085938 219.734375 339.101562 218.71875 342.335938 214.648438 L 345.859375 210.144531 L 346.511719 211.199219 C 346.875 211.777344 347.128906 212.359375 347.128906 212.542969 C 347.128906 212.6875 345.75 214.03125 344.078125 215.519531 C 337.542969 221.441406 336.5625 224.09375 342.917969 218.71875 C 344.371094 217.480469 346.367188 215.703125 347.382812 214.722656 L 349.234375 212.941406 L 351.996094 213.050781 L 354.792969 213.160156 L 351.921875 215.265625 C 348.65625 217.664062 344.730469 221.441406 345.277344 221.625 C 346.113281 221.878906 351.742188 218.246094 355.917969 214.792969 L 357.589844 213.378906 L 358.640625 214.46875 C 359.257812 215.085938 359.511719 215.664062 359.296875 215.847656 C 359.113281 215.992188 357.226562 217.300781 355.121094 218.71875 C 351.195312 221.371094 349.5625 222.785156 350.433594 222.785156 C 350.871094 222.785156 355.882812 219.878906 358.714844 217.953125 C 359.585938 217.375 360.347656 216.972656 360.386719 217.046875 C 360.675781 217.375 361.328125 218.789062 361.328125 219.082031 C 361.328125 219.261719 360.894531 219.589844 360.386719 219.84375 C 358.789062 220.570312 352.433594 224.929688 350.941406 226.308594 C 349.78125 227.4375 349.636719 227.691406 350.179688 227.800781 C 350.941406 227.945312 355.589844 225.839844 357.953125 224.238281 C 358.824219 223.621094 359.621094 223.148438 359.695312 223.148438 C 359.769531 223.148438 359.511719 223.695312 359.113281 224.386719 C 358.714844 225.074219 358.242188 226.566406 358.0625 227.691406 C 357.878906 228.851562 357.660156 229.871094 357.550781 229.941406 C 357.480469 230.015625 355.953125 230.234375 354.175781 230.414062 C 350.761719 230.777344 346.875 231.832031 344.441406 233.03125 L 342.988281 233.757812 L 344.730469 231.976562 C 347.3125 229.324219 346.949219 228.78125 344.042969 230.996094 L 342.335938 232.339844 L 341.320312 231.105469 C 340.738281 230.414062 340.265625 229.726562 340.265625 229.542969 C 340.265625 229.363281 340.992188 228.34375 341.898438 227.292969 C 344.585938 224.167969 343.898438 223.839844 340.628906 226.710938 L 338.996094 228.164062 L 337.503906 226.820312 L 335.980469 225.476562 L 336.667969 224.238281 C 337.03125 223.550781 337.324219 222.640625 337.324219 222.242188 C 337.324219 221.660156 337.070312 221.84375 335.945312 223.078125 C 334.707031 224.492188 334.492188 224.601562 333.582031 224.238281 C 332.820312 223.949219 332.636719 223.695312 332.785156 223.148438 C 332.894531 222.75 333.109375 222.097656 333.21875 221.695312 C 333.546875 220.460938 332.675781 220.898438 332.019531 222.242188 C 331.585938 223.148438 331.1875 223.511719 330.570312 223.511719 C 329.585938 223.511719 329.441406 223.949219 333.183594 215.882812 C 337.179688 207.273438 340.882812 200.625 341.71875 200.625 C 341.898438 200.625 342.335938 201.023438 342.625 201.496094 Z M 89.636719 202.660156 C 92.542969 203.566406 94.976562 204.367188 94.976562 204.402344 C 95.011719 204.402344 95.121094 205.058594 95.265625 205.785156 L 95.519531 207.128906 L 89.964844 205.277344 C 86.914062 204.257812 84.371094 203.421875 84.371094 203.386719 C 84.117188 203.203125 83.863281 200.988281 84.082031 200.988281 C 84.226562 200.988281 86.730469 201.75 89.636719 202.660156 Z M 234.945312 204.65625 C 234.945312 204.984375 233.527344 206.21875 233.347656 206.039062 C 233.054688 205.675781 231.675781 202.296875 231.675781 201.898438 C 231.675781 200.808594 232.65625 201.207031 233.746094 202.769531 C 234.398438 203.675781 234.945312 204.550781 234.945312 204.65625 Z M 231.675781 205.347656 C 232.074219 205.894531 232.402344 206.546875 232.402344 206.730469 C 232.402344 206.910156 230.222656 208.980469 227.609375 211.304688 C 223.03125 215.339844 222.777344 215.484375 222.449219 214.722656 C 222.269531 214.25 221.796875 213.230469 221.433594 212.46875 C 221.070312 211.667969 220.78125 210.980469 220.78125 210.941406 C 220.78125 210.90625 222.921875 209.054688 225.574219 206.800781 C 230.042969 202.988281 230.367188 202.769531 230.660156 203.53125 C 230.804688 203.96875 231.277344 204.804688 231.675781 205.347656 Z M 99.84375 206.003906 C 102.894531 207.019531 102.929688 207.054688 103.039062 208.363281 L 103.148438 209.671875 L 99.914062 208.582031 C 96.648438 207.492188 96.246094 207.128906 96.210938 205.421875 C 96.210938 204.804688 96.355469 204.839844 99.84375 206.003906 Z M 116.292969 212.03125 C 119.234375 213.195312 123.160156 214.757812 125.011719 215.519531 L 128.351562 216.902344 L 128.460938 218.570312 L 128.570312 220.28125 L 125.738281 218.828125 C 121.453125 216.683594 115.53125 214.210938 109.648438 212.070312 L 104.382812 210.144531 L 104.164062 207.527344 L 107.542969 208.761719 C 109.394531 209.417969 113.351562 210.90625 116.292969 212.03125 Z M 220.78125 214.394531 C 221.46875 215.8125 221.6875 216.609375 221.398438 216.71875 C 220.925781 216.863281 218.855469 212.722656 219.183594 212.179688 C 219.472656 211.707031 219.582031 211.851562 220.78125 214.394531 Z M 219.21875 215.59375 L 220.34375 217.664062 L 216.457031 220.824219 C 214.351562 222.570312 212.425781 224.167969 212.171875 224.3125 C 211.882812 224.566406 211.484375 224.09375 210.9375 222.894531 C 210.464844 221.949219 210.101562 221.007812 210.101562 220.859375 C 210.066406 220.570312 217.949219 213.269531 218.054688 213.449219 C 218.09375 213.484375 218.601562 214.46875 219.21875 215.59375 Z M 138.15625 221.515625 C 144.550781 224.675781 152.792969 229.398438 153.628906 230.34375 C 153.738281 230.488281 153.738281 231.941406 153.628906 233.578125 L 153.410156 236.589844 L 149.597656 233.832031 C 144.367188 230.015625 135.871094 224.421875 132.09375 222.3125 L 128.96875 220.570312 L 129.332031 219.117188 C 129.550781 218.355469 129.878906 217.699219 130.09375 217.699219 C 130.3125 217.699219 133.945312 219.40625 138.15625 221.515625 Z M 210.902344 225.511719 C 210.828125 225.511719 209.230469 226.890625 207.304688 228.527344 C 205.34375 230.160156 203.710938 231.503906 203.636719 231.503906 C 203.53125 231.503906 203.167969 230.851562 202.804688 230.015625 L 202.113281 228.5625 L 208.941406 221.734375 L 209.957031 223.585938 C 210.503906 224.601562 210.9375 225.476562 210.902344 225.511719 Z M 332.203125 227.363281 C 334.453125 228.488281 337.25 231.46875 338.59375 234.230469 C 339.792969 236.699219 339.792969 237.5 338.558594 238.625 L 337.578125 239.535156 L 337.179688 238.226562 C 336.777344 236.699219 336.269531 236.882812 336.269531 238.554688 C 336.269531 239.171875 336.125 239.898438 335.980469 240.117188 C 335.652344 240.625 328.027344 243.203125 327.335938 243.058594 C 327.046875 242.984375 327.410156 242.113281 328.316406 240.625 C 330.894531 236.335938 329.878906 236.300781 326.898438 240.550781 C 324.539062 243.964844 324.574219 243.964844 324.832031 241.132812 C 325.703125 231.503906 326.390625 228.527344 328.171875 227.144531 C 329.371094 226.203125 329.914062 226.238281 332.203125 227.363281 Z M 202.511719 232.632812 C 202.476562 232.742188 201.277344 233.941406 199.824219 235.285156 L 197.246094 237.71875 L 196.484375 236.628906 C 196.046875 236.046875 195.722656 235.464844 195.722656 235.320312 C 195.722656 235.175781 196.8125 233.941406 198.15625 232.523438 L 200.585938 230.015625 L 201.605469 231.214844 C 202.148438 231.867188 202.550781 232.523438 202.511719 232.632812 Z M 158.460938 233.941406 C 163.6875 238.191406 164.707031 239.242188 164.453125 240.222656 C 164.304688 240.734375 164.199219 241.75 164.160156 242.550781 C 164.125 243.566406 163.980469 243.894531 163.617188 243.75 C 163.324219 243.640625 161.109375 242.113281 158.675781 240.40625 C 154.574219 237.464844 154.28125 237.171875 154.464844 236.265625 C 154.574219 235.757812 154.792969 234.558594 154.898438 233.578125 C 155.046875 232.632812 155.300781 231.867188 155.519531 231.867188 C 155.699219 231.867188 157.042969 232.8125 158.460938 233.941406 Z M 196.085938 238.769531 C 196.085938 238.878906 194.851562 240.117188 193.324219 241.496094 C 190.710938 243.855469 190.527344 243.964844 190.054688 243.3125 C 189.765625 242.914062 189.582031 242.476562 189.621094 242.332031 C 189.691406 242.1875 190.78125 240.804688 192.054688 239.316406 L 194.378906 236.519531 L 195.210938 237.574219 C 195.683594 238.117188 196.046875 238.664062 196.085938 238.769531 Z M 168.300781 242.621094 C 171.714844 245.601562 172.585938 246.871094 172.332031 248.433594 L 172.078125 249.671875 L 168.484375 247.234375 C 165.941406 245.492188 164.925781 244.621094 165.070312 244.21875 C 165.214844 243.929688 165.394531 242.984375 165.46875 242.113281 C 165.578125 241.277344 165.757812 240.585938 165.832031 240.585938 C 165.941406 240.585938 167.03125 241.496094 168.300781 242.621094 Z M 188.386719 246.292969 C 187.078125 247.636719 186.785156 247.78125 186.351562 247.34375 C 185.878906 246.910156 185.988281 246.582031 187.1875 245.164062 C 188.492188 243.53125 188.601562 243.492188 189.257812 244.113281 C 189.910156 244.691406 189.875 244.765625 188.386719 246.292969 Z M 184.609375 249.707031 C 183.300781 251.085938 181.304688 252.578125 181.738281 251.8125 C 181.921875 251.558594 182.71875 250.542969 183.519531 249.5625 C 184.5 248.398438 185.082031 247.960938 185.335938 248.21875 C 185.589844 248.472656 185.335938 248.945312 184.609375 249.707031 Z M 175.382812 250.761719 C 176.253906 251.996094 176.144531 252.066406 174.65625 251.304688 C 173.566406 250.761719 173.347656 250.359375 173.820312 249.925781 C 174.257812 249.488281 174.585938 249.671875 175.382812 250.761719 Z M 152.503906 98.792969 C 146.582031 104.5 140.589844 109.222656 126.609375 119.246094 C 113.714844 128.476562 112.664062 129.273438 112.988281 129.636719 C 113.351562 129.964844 118.253906 126.949219 128.75 119.9375 C 139.863281 112.527344 147.09375 107.148438 151.414062 103.007812 C 154.792969 99.8125 157.949219 95.960938 157.949219 95.050781 C 157.949219 93.890625 156.714844 94.761719 152.503906 98.792969 Z M 169.027344 95.632812 C 168.664062 96.25 169.136719 96.652344 171.207031 97.414062 C 174.621094 98.683594 181.449219 99.921875 200.988281 102.753906 C 211.121094 104.207031 226.335938 106.167969 227.644531 106.167969 C 228.1875 106.167969 228.40625 106.023438 228.1875 105.84375 C 227.644531 105.332031 213.953125 103.046875 185.914062 98.722656 C 177.089844 97.378906 170.917969 96.179688 169.863281 95.597656 C 169.5 95.378906 169.171875 95.414062 169.027344 95.632812 Z M 235.523438 107.222656 C 235.886719 107.585938 239.519531 108.347656 245.113281 109.257812 C 247 109.546875 249.109375 109.910156 249.761719 110.019531 C 251.578125 110.3125 251.140625 109.546875 249.21875 109.113281 C 245.875 108.347656 237.339844 106.894531 236.25 106.894531 C 235.597656 106.894531 235.308594 107.042969 235.523438 107.222656 Z M 260.4375 111.65625 C 260.621094 112.273438 262.945312 112.671875 273.148438 113.945312 C 294.03125 116.558594 302.859375 117.394531 302.859375 116.8125 C 302.859375 115.90625 275.4375 112.019531 264.578125 111.402344 C 260.949219 111.183594 260.292969 111.21875 260.4375 111.65625 Z M 296.140625 133.851562 C 279.289062 144.679688 266.285156 154.558594 257.023438 163.535156 C 253.539062 166.875 252.449219 168.292969 253.394531 168.292969 C 253.574219 168.292969 254.738281 167.382812 256.042969 166.257812 C 263.636719 159.609375 274.09375 151.472656 287.058594 142.136719 C 299.699219 133.015625 302.96875 130.402344 301.515625 130.546875 C 301.332031 130.546875 298.9375 132.035156 296.140625 133.851562 Z M 94.214844 141.480469 C 86.296875 146.023438 76.707031 152.125 64.359375 160.371094 C 54.554688 166.910156 52.230469 168.65625 53.175781 168.65625 C 53.464844 168.65625 61.417969 163.605469 75.328125 154.632812 C 82.121094 150.238281 90.292969 145.042969 93.488281 143.078125 C 96.683594 141.117188 99.550781 139.265625 99.84375 139.011719 C 101.148438 137.777344 99.007812 138.683594 94.214844 141.480469 Z M 33.746094 179.882812 C 33.746094 180.355469 34.507812 180.460938 43.1875 181.550781 C 67.8125 184.675781 85.75 189.289062 109.828125 198.628906 C 118.253906 201.898438 130.3125 206.4375 130.605469 206.4375 C 130.675781 206.4375 130.710938 206.292969 130.710938 206.074219 C 130.710938 205.457031 119.453125 200.371094 106.089844 194.957031 C 86.367188 186.964844 66.613281 182.171875 44.859375 180.097656 C 38.320312 179.480469 33.746094 179.410156 33.746094 179.882812 Z M 213.480469 200.878906 C 200.660156 213.414062 189.328125 225.945312 183.953125 233.46875 C 182.136719 236.011719 181.410156 237.574219 182.210938 237.246094 C 182.394531 237.171875 183.882812 235.5 185.550781 233.503906 C 189.546875 228.746094 196.484375 221.078125 204.980469 212.105469 C 217.074219 199.28125 218.019531 198.265625 219.980469 196.011719 C 221.035156 194.777344 221.722656 193.6875 221.542969 193.578125 C 221.363281 193.433594 217.730469 196.738281 213.480469 200.878906 Z M 137.976562 209.851562 C 137.976562 209.960938 139.175781 210.652344 140.628906 211.414062 C 143.097656 212.6875 150.433594 217.519531 160.929688 224.710938 C 165.140625 227.617188 166.703125 228.453125 166.121094 227.507812 C 165.722656 226.890625 154.429688 218.535156 150.105469 215.664062 C 144.550781 211.996094 137.976562 208.871094 137.976562 209.851562 Z M 329.371094 229.578125 C 328.644531 229.835938 327.554688 230.816406 327.554688 231.214844 C 327.554688 231.359375 328.351562 231.503906 329.332031 231.503906 C 330.96875 231.503906 331.1875 231.613281 332.746094 233.320312 C 333.65625 234.304688 334.601562 235.136719 334.816406 235.136719 C 336.050781 235.136719 334.527344 230.523438 333.039062 229.6875 C 332.277344 229.289062 330.3125 229.253906 329.371094 229.578125 Z M 329.371094 229.578125 " fill-opacity="1" fill-rule="nonzero"/></g></svg>