<svg xmlns="http://www.w3.org/2000/svg" xmlns:xlink="http://www.w3.org/1999/xlink" width="500" zoomAndPan="magnify" viewBox="0 0 375 374.999991" height="500" preserveAspectRatio="xMidYMid meet" version="1.0"><defs><clipPath id="374a17c39d"><path d="M 73 37.5 L 313 37.5 L 313 235 L 73 235 Z M 73 37.5 " clip-rule="nonzero"/></clipPath><clipPath id="e43072f66f"><path d="M 30.734375 127 L 185 127 L 185 341 L 30.734375 341 Z M 30.734375 127 " clip-rule="nonzero"/></clipPath><clipPath id="2a9646c065"><path d="M 145 117 L 269 117 L 269 345.75 L 145 345.75 Z M 145 117 " clip-rule="nonzero"/></clipPath><clipPath id="7e82b0627b"><path d="M 174 218 L 344.234375 218 L 344.234375 345.75 L 174 345.75 Z M 174 218 " clip-rule="nonzero"/></clipPath></defs><path fill="#100f0d" d="M 206.074219 271.34375 C 204.605469 271.34375 203.417969 272.535156 203.417969 274.003906 C 203.417969 275.472656 204.605469 276.660156 206.074219 276.660156 L 235.28125 276.660156 C 236.75 276.660156 237.9375 275.472656 237.9375 274.003906 C 237.9375 272.535156 236.75 271.34375 235.28125 271.34375 L 206.074219 271.34375 " fill-opacity="1" fill-rule="nonzero"/><g clip-path="url(#374a17c39d)"><path fill="#100f0d" d="M 253.867188 42.816406 L 253.867188 48.128906 L 259.179688 48.128906 L 259.179688 46.574219 L 303.21875 90.648438 L 259.179688 90.648438 L 259.179688 87.988281 L 253.867188 87.988281 L 253.867188 90.648438 L 130.167969 90.648438 L 82.371094 42.816406 Z M 75.960938 125.191406 C 77.429688 125.191406 78.617188 124.003906 78.617188 122.535156 L 78.617188 46.574219 L 126.414062 94.402344 L 126.414062 120.542969 C 126.414062 122.011719 127.601562 123.199219 129.066406 123.199219 C 130.535156 123.199219 131.722656 122.011719 131.722656 120.542969 L 131.722656 95.960938 L 306.972656 95.960938 L 306.972656 231.484375 C 306.972656 232.953125 308.160156 234.140625 309.628906 234.140625 C 311.097656 234.140625 312.285156 232.953125 312.285156 231.484375 L 312.285156 93.304688 C 312.285156 92.570312 311.988281 91.90625 311.503906 91.425781 L 258.402344 38.277344 C 257.902344 37.78125 257.230469 37.5 256.523438 37.5 L 75.960938 37.5 C 74.886719 37.5 73.917969 38.148438 73.507812 39.140625 C 73.371094 39.46875 73.308594 39.816406 73.308594 40.15625 L 73.308594 122.535156 C 73.308594 124.003906 74.496094 125.191406 75.960938 125.191406 " fill-opacity="1" fill-rule="nonzero"/></g><path fill="#100f0d" d="M 271.542969 239.644531 L 275.300781 235.890625 L 269.667969 230.253906 L 265.914062 234.011719 L 271.542969 239.644531 " fill-opacity="1" fill-rule="nonzero"/><path fill="#100f0d" d="M 282.808594 250.917969 L 286.5625 247.160156 L 280.933594 241.523438 L 277.175781 245.28125 L 282.808594 250.917969 " fill-opacity="1" fill-rule="nonzero"/><path fill="#100f0d" d="M 253.867188 143.792969 L 259.179688 143.792969 L 259.179688 135.820312 L 253.867188 135.820312 L 253.867188 143.792969 " fill-opacity="1" fill-rule="nonzero"/><path fill="#100f0d" d="M 259.179688 103.933594 L 253.867188 103.933594 L 253.867188 111.90625 L 259.179688 111.90625 L 259.179688 103.933594 " fill-opacity="1" fill-rule="nonzero"/><path fill="#100f0d" d="M 253.867188 127.847656 L 259.179688 127.847656 L 259.179688 119.878906 L 253.867188 119.878906 L 253.867188 127.847656 " fill-opacity="1" fill-rule="nonzero"/><path fill="#100f0d" d="M 253.867188 159.738281 L 259.179688 159.738281 L 259.179688 151.765625 L 253.867188 151.765625 L 253.867188 159.738281 " fill-opacity="1" fill-rule="nonzero"/><path fill="#100f0d" d="M 253.867188 207.570312 L 259.179688 207.570312 L 259.179688 199.597656 L 253.867188 199.597656 L 253.867188 207.570312 " fill-opacity="1" fill-rule="nonzero"/><path fill="#100f0d" d="M 253.867188 223.511719 L 255.421875 223.511719 L 260.277344 228.371094 L 264.03125 224.613281 L 259.179688 219.753906 L 259.179688 215.539062 L 253.867188 215.539062 L 253.867188 223.511719 " fill-opacity="1" fill-rule="nonzero"/><path fill="#100f0d" d="M 253.867188 191.625 L 259.179688 191.625 L 259.179688 183.652344 L 253.867188 183.652344 L 253.867188 191.625 " fill-opacity="1" fill-rule="nonzero"/><path fill="#100f0d" d="M 253.867188 175.679688 L 259.179688 175.679688 L 259.179688 167.710938 L 253.867188 167.710938 L 253.867188 175.679688 " fill-opacity="1" fill-rule="nonzero"/><path fill="#100f0d" d="M 259.179688 56.101562 L 253.867188 56.101562 L 253.867188 64.074219 L 259.179688 64.074219 L 259.179688 56.101562 " fill-opacity="1" fill-rule="nonzero"/><path fill="#100f0d" d="M 259.179688 72.046875 L 253.867188 72.046875 L 253.867188 80.015625 L 259.179688 80.015625 L 259.179688 72.046875 " fill-opacity="1" fill-rule="nonzero"/><g clip-path="url(#e43072f66f)"><path fill="#100f0d" d="M 56.144531 140.789062 C 69.910156 135.871094 88.261719 133.164062 107.824219 133.164062 C 127.386719 133.164062 145.742188 135.871094 159.503906 140.789062 C 172.226562 145.335938 179.519531 151.273438 179.519531 157.078125 C 179.519531 162.886719 172.226562 168.824219 159.503906 173.367188 C 146.367188 178.0625 129.046875 180.738281 110.480469 180.972656 L 110.480469 173.023438 L 105.171875 173.023438 L 105.171875 180.972656 C 86.605469 180.738281 69.285156 178.0625 56.144531 173.367188 C 43.425781 168.824219 36.132812 162.886719 36.132812 157.078125 C 36.132812 151.273438 43.425781 145.335938 56.144531 140.789062 Z M 138.808594 332.671875 C 129.082031 334.296875 118.65625 335.121094 107.824219 335.121094 C 88.261719 335.121094 69.910156 332.410156 56.144531 327.492188 C 43.425781 322.945312 36.132812 317.011719 36.132812 311.203125 L 36.132812 168.082031 C 40.117188 171.980469 46.269531 175.480469 54.363281 178.371094 C 68.679688 183.492188 87.667969 186.308594 107.824219 186.308594 C 127.980469 186.308594 146.972656 183.492188 161.289062 178.371094 C 169.382812 175.480469 175.535156 171.980469 179.519531 168.082031 L 179.519531 223.511719 C 179.519531 224.980469 180.707031 226.171875 182.175781 226.171875 C 183.640625 226.171875 184.828125 224.980469 184.828125 223.511719 L 184.828125 157.078125 C 184.828125 148.773438 176.46875 141.210938 161.289062 135.789062 C 146.972656 130.667969 127.980469 127.847656 107.824219 127.847656 C 87.667969 127.847656 68.679688 130.667969 54.363281 135.789062 C 39.183594 141.210938 30.820312 148.773438 30.820312 157.078125 L 30.820312 311.203125 C 30.820312 319.511719 39.183594 327.070312 54.359375 332.496094 C 68.679688 337.617188 87.667969 340.433594 107.824219 340.433594 C 118.949219 340.433594 129.667969 339.589844 139.683594 337.914062 C 141.132812 337.675781 142.109375 336.304688 141.867188 334.859375 C 141.625 333.410156 140.257812 332.433594 138.808594 332.671875 " fill-opacity="1" fill-rule="nonzero"/></g><path fill="#100f0d" d="M 155.121094 287.933594 C 151.871094 287 148.375 286.152344 144.746094 285.421875 L 143.699219 290.632812 C 147.1875 291.335938 150.539062 292.144531 153.652344 293.042969 L 155.121094 287.933594 " fill-opacity="1" fill-rule="nonzero"/><path fill="#100f0d" d="M 134.257812 283.675781 C 130.835938 283.21875 127.285156 282.847656 123.703125 282.574219 L 123.296875 287.871094 C 126.777344 288.140625 130.230469 288.5 133.550781 288.945312 L 134.257812 283.675781 " fill-opacity="1" fill-rule="nonzero"/><path fill="#100f0d" d="M 61.992188 293.042969 C 65.109375 292.148438 68.460938 291.335938 71.949219 290.632812 L 70.902344 285.421875 C 67.273438 286.152344 63.78125 287 60.527344 287.933594 L 61.992188 293.042969 " fill-opacity="1" fill-rule="nonzero"/><path fill="#100f0d" d="M 43.609375 300.960938 C 46.027344 299.332031 48.984375 297.785156 52.398438 296.363281 L 50.359375 291.457031 C 46.625 293.011719 43.355469 294.726562 40.644531 296.546875 L 43.609375 300.960938 " fill-opacity="1" fill-rule="nonzero"/><path fill="#100f0d" d="M 82.09375 288.945312 C 85.417969 288.5 88.867188 288.140625 92.351562 287.871094 L 91.941406 282.574219 C 88.363281 282.847656 84.8125 283.222656 81.390625 283.679688 L 82.09375 288.945312 " fill-opacity="1" fill-rule="nonzero"/><path fill="#100f0d" d="M 110.480469 157.078125 L 105.171875 157.078125 L 105.171875 165.050781 L 110.480469 165.050781 L 110.480469 157.078125 " fill-opacity="1" fill-rule="nonzero"/><path fill="#100f0d" d="M 121.101562 313.863281 L 121.101562 308.546875 L 113.136719 308.546875 L 113.136719 313.863281 L 121.101562 313.863281 " fill-opacity="1" fill-rule="nonzero"/><path fill="#100f0d" d="M 105.171875 244.773438 L 110.480469 244.773438 L 110.480469 236.800781 L 105.171875 236.800781 L 105.171875 244.773438 " fill-opacity="1" fill-rule="nonzero"/><path fill="#100f0d" d="M 105.171875 260.714844 L 110.480469 260.714844 L 110.480469 252.742188 L 105.171875 252.742188 L 105.171875 260.714844 " fill-opacity="1" fill-rule="nonzero"/><path fill="#100f0d" d="M 105.171875 276.660156 L 110.480469 276.660156 L 110.480469 268.6875 L 105.171875 268.6875 L 105.171875 276.660156 " fill-opacity="1" fill-rule="nonzero"/><path fill="#100f0d" d="M 152.964844 308.546875 L 145 308.546875 L 145 313.863281 L 152.964844 313.863281 L 152.964844 308.546875 " fill-opacity="1" fill-rule="nonzero"/><path fill="#100f0d" d="M 105.171875 228.828125 L 110.480469 228.828125 L 110.480469 220.855469 L 105.171875 220.855469 L 105.171875 228.828125 " fill-opacity="1" fill-rule="nonzero"/><path fill="#100f0d" d="M 110.480469 188.96875 L 105.171875 188.96875 L 105.171875 196.941406 L 110.480469 196.941406 L 110.480469 188.96875 " fill-opacity="1" fill-rule="nonzero"/><path fill="#100f0d" d="M 105.171875 308.546875 L 110.480469 308.546875 L 110.480469 300.574219 L 105.171875 300.574219 L 105.171875 308.546875 " fill-opacity="1" fill-rule="nonzero"/><path fill="#100f0d" d="M 110.480469 287.324219 C 111.316406 287.332031 112.152344 287.332031 112.984375 287.355469 L 113.117188 282.039062 C 109.605469 281.953125 106.042969 281.953125 102.527344 282.039062 L 102.65625 287.355469 C 103.492188 287.332031 104.332031 287.332031 105.171875 287.324219 L 105.171875 292.601562 L 110.480469 292.601562 L 110.480469 287.324219 " fill-opacity="1" fill-rule="nonzero"/><path fill="#100f0d" d="M 105.171875 212.882812 L 110.480469 212.882812 L 110.480469 204.910156 L 105.171875 204.910156 L 105.171875 212.882812 " fill-opacity="1" fill-rule="nonzero"/><path fill="#100f0d" d="M 137.035156 308.546875 L 129.066406 308.546875 L 129.066406 313.863281 L 137.035156 313.863281 L 137.035156 308.546875 " fill-opacity="1" fill-rule="nonzero"/><path fill="#100f0d" d="M 220.785156 165.050781 C 222.25 165.050781 223.441406 166.242188 223.441406 167.710938 C 223.441406 169.175781 222.25 170.367188 220.785156 170.367188 C 219.320312 170.367188 218.128906 169.175781 218.128906 167.710938 C 218.128906 166.242188 219.320312 165.050781 220.785156 165.050781 Z M 220.785156 175.679688 C 225.179688 175.679688 228.75 172.105469 228.75 167.710938 C 228.75 163.3125 225.179688 159.738281 220.785156 159.738281 C 216.394531 159.738281 212.820312 163.3125 212.820312 167.710938 C 212.820312 172.105469 216.394531 175.679688 220.785156 175.679688 " fill-opacity="1" fill-rule="nonzero"/><g clip-path="url(#2a9646c065)"><path fill="#100f0d" d="M 176.8125 310.082031 C 174.394531 311.992188 171.503906 313.183594 168.453125 313.535156 C 167.75 313.617188 167.113281 313.96875 166.671875 314.519531 L 155.964844 328.023438 L 209.035156 182.109375 C 209.429688 182.433594 209.84375 182.742188 210.265625 183.03125 L 217.957031 204.183594 L 182.113281 302.746094 C 181.066406 305.628906 179.234375 308.167969 176.8125 310.082031 Z M 220.785156 154.421875 C 228.105469 154.421875 234.0625 160.382812 234.0625 167.710938 C 234.0625 175.035156 228.105469 180.996094 220.785156 180.996094 C 218.488281 180.996094 216.324219 180.40625 214.441406 179.375 C 214.0625 178.886719 213.539062 178.546875 212.949219 178.410156 C 209.660156 175.992188 207.507812 172.101562 207.507812 167.710938 C 207.507812 160.382812 213.464844 154.421875 220.785156 154.421875 Z M 215.472656 138.476562 C 216.9375 138.476562 218.128906 137.289062 218.128906 135.820312 L 218.128906 125.191406 C 218.128906 123.726562 219.316406 122.535156 220.78125 122.535156 C 221.492188 122.535156 222.160156 122.8125 222.65625 123.300781 C 223.160156 123.8125 223.4375 124.484375 223.4375 125.191406 L 223.4375 135.820312 C 223.4375 137.289062 224.625 138.476562 226.09375 138.476562 L 226.09375 149.886719 C 224.410156 149.378906 222.628906 149.109375 220.785156 149.109375 C 218.9375 149.109375 217.15625 149.382812 215.472656 149.886719 Z M 187.105469 304.558594 L 220.78125 211.953125 L 245.171875 279.007812 C 245.566406 280.085938 246.582031 280.757812 247.667969 280.757812 C 247.96875 280.757812 248.277344 280.707031 248.574219 280.597656 C 249.953125 280.09375 250.664062 278.570312 250.164062 277.191406 L 216.964844 185.914062 C 218.199219 186.171875 219.476562 186.308594 220.785156 186.308594 C 225.238281 186.308594 229.328125 184.734375 232.53125 182.113281 L 263.175781 266.363281 C 263.570312 267.4375 264.585938 268.113281 265.671875 268.113281 C 265.972656 268.113281 266.28125 268.058594 266.578125 267.949219 C 267.957031 267.445312 268.667969 265.921875 268.167969 264.542969 L 236.53125 177.574219 C 238.332031 174.710938 239.371094 171.332031 239.371094 167.710938 C 239.371094 161.402344 236.21875 155.820312 231.402344 152.457031 L 231.402344 135.820312 C 231.402344 134.351562 230.214844 133.164062 228.75 133.164062 L 228.75 125.191406 C 228.75 123.070312 227.925781 121.070312 226.414062 119.546875 C 224.902344 118.046875 222.902344 117.21875 220.78125 117.21875 C 216.390625 117.21875 212.816406 120.796875 212.816406 125.191406 L 212.816406 133.164062 C 211.347656 133.164062 210.160156 134.351562 210.160156 135.820312 L 210.160156 152.460938 C 205.351562 155.824219 202.199219 161.402344 202.199219 167.710938 C 202.199219 171.328125 203.242188 174.707031 205.035156 177.566406 L 145.378906 341.59375 C 144.933594 342.816406 145.441406 344.183594 146.578125 344.820312 C 146.988281 345.050781 147.433594 345.160156 147.875 345.160156 C 148.660156 345.160156 149.4375 344.808594 149.957031 344.152344 L 170.171875 318.65625 C 173.792969 318.054688 177.207031 316.542969 180.101562 314.253906 C 183.300781 311.722656 185.722656 308.375 187.105469 304.558594 " fill-opacity="1" fill-rule="nonzero"/></g><path fill="#100f0d" d="M 317.59375 268.378906 L 317.59375 319.175781 L 249.183594 319.175781 Z M 238.625 322.667969 C 238.984375 323.757812 240 324.492188 241.144531 324.492188 L 320.25 324.492188 C 321.71875 324.492188 322.90625 323.304688 322.90625 321.835938 L 322.90625 263.101562 C 322.90625 262.09375 322.339844 261.175781 321.445312 260.726562 C 320.550781 260.273438 319.476562 260.367188 318.667969 260.964844 L 239.566406 319.699219 C 238.644531 320.382812 238.265625 321.578125 238.625 322.667969 " fill-opacity="1" fill-rule="nonzero"/><g clip-path="url(#7e82b0627b)"><path fill="#100f0d" d="M 338.835938 340.433594 L 184.898438 340.433594 L 338.835938 226.136719 Z M 342.6875 218.480469 C 341.792969 218.03125 340.71875 218.121094 339.910156 218.722656 L 175.28125 340.960938 C 174.363281 341.640625 173.984375 342.839844 174.34375 343.925781 C 174.703125 345.015625 175.71875 345.75 176.863281 345.75 L 341.492188 345.75 C 342.960938 345.75 344.148438 344.5625 344.148438 343.09375 L 344.148438 220.855469 C 344.148438 219.851562 343.582031 218.933594 342.6875 218.480469 " fill-opacity="1" fill-rule="nonzero"/></g></svg>