<svg xmlns="http://www.w3.org/2000/svg" xmlns:xlink="http://www.w3.org/1999/xlink" width="500" zoomAndPan="magnify" viewBox="0 0 375 374.999991" height="500" preserveAspectRatio="xMidYMid meet" version="1.0"><defs><clipPath id="d0f658e5eb"><path d="M 62.957031 20 L 293.957031 20 L 293.957031 342 L 62.957031 342 Z M 62.957031 20 " clip-rule="nonzero"/></clipPath></defs><path fill="#ffffff" d="M 179.933594 304.964844 L 178.203125 304.964844 C 175.734375 304.964844 173.734375 306.964844 173.734375 309.433594 C 173.734375 311.902344 175.734375 313.902344 178.203125 313.902344 L 179.933594 313.902344 C 182.398438 313.902344 184.402344 311.902344 184.402344 309.433594 C 184.398438 306.964844 182.398438 304.964844 179.933594 304.964844 Z M 179.933594 304.964844 " fill-opacity="1" fill-rule="nonzero"/><g clip-path="url(#d0f658e5eb)"><path fill="#ffffff" d="M 227.558594 200.230469 L 183.984375 243.800781 C 183.972656 243.796875 183.957031 243.792969 183.941406 243.789062 C 182.179688 243.4375 180.371094 243.257812 178.558594 243.257812 L 177.460938 243.257812 C 169.3125 243.257812 161.625 246.84375 156.371094 253.089844 C 156.054688 253.46875 155.820312 253.886719 155.621094 254.316406 C 154.074219 254 152.636719 253.292969 151.503906 252.226562 L 92.019531 196.394531 C 87.164062 191.835938 79.554688 191.835938 74.6875 196.394531 L 64.648438 205.816406 C 63.566406 206.832031 62.957031 208.246094 62.957031 209.730469 C 62.957031 211.207031 63.570312 212.625 64.652344 213.636719 L 148.214844 291.882812 C 148.726562 292.367188 149.3125 292.722656 149.929688 292.964844 L 149.929688 303.375 L 93.007812 303.375 C 83.5 303.375 75.765625 311.109375 75.765625 320.613281 L 75.765625 336.519531 C 75.765625 339.480469 78.167969 341.882812 81.128906 341.882812 L 274.894531 341.882812 C 277.851562 341.882812 280.253906 339.480469 280.253906 336.519531 L 280.253906 320.613281 C 280.253906 311.109375 272.519531 303.375 263.011719 303.375 L 206.09375 303.375 L 206.09375 283.605469 L 253.125 236.570312 C 288.601562 201.101562 289.585938 144.625 255.359375 107.996094 C 255.324219 107.960938 255.277344 107.949219 255.242188 107.910156 C 255.175781 107.046875 254.921875 106.183594 254.417969 105.40625 C 254.027344 104.796875 253.585938 104.21875 253.140625 103.644531 L 266.398438 90.382812 C 270.875 85.910156 270.875 78.628906 266.398438 74.160156 L 264.554688 72.316406 L 280.210938 56.664062 L 284.070312 60.523438 C 285.117188 61.574219 286.492188 62.09375 287.863281 62.09375 C 289.234375 62.09375 290.605469 61.574219 291.652344 60.523438 C 293.746094 58.429688 293.746094 55.039062 291.652344 52.945312 L 260.480469 21.769531 C 258.386719 19.675781 254.992188 19.675781 252.898438 21.769531 C 250.804688 23.863281 250.804688 27.257812 252.898438 29.351562 L 256.746094 33.199219 L 241.09375 48.851562 L 239.285156 47.046875 C 234.945312 42.703125 227.386719 42.707031 223.0625 47.042969 L 173.664062 96.4375 C 167.382812 93.484375 159.671875 94.535156 154.488281 99.71875 L 146.15625 108.054688 C 139.550781 114.65625 139.550781 125.402344 146.15625 132.003906 L 148 133.851562 L 119.238281 162.617188 C 118.230469 163.621094 117.664062 164.984375 117.664062 166.410156 C 117.664062 167.832031 118.230469 169.195312 119.238281 170.199219 L 121.972656 172.933594 L 109.875 185.03125 C 107.78125 187.125 107.78125 190.519531 109.875 192.613281 L 120.851562 203.59375 C 121.859375 204.601562 123.21875 205.164062 124.644531 205.164062 C 126.0625 205.164062 127.429688 204.601562 128.433594 203.59375 L 140.535156 191.492188 L 142.765625 193.722656 C 143.773438 194.730469 145.136719 195.292969 146.554688 195.292969 C 147.976562 195.292969 149.34375 194.730469 150.347656 193.722656 L 179.105469 164.960938 L 180.953125 166.808594 C 184.253906 170.105469 188.59375 171.753906 192.929688 171.753906 C 197.269531 171.753906 201.605469 170.105469 204.910156 166.804688 L 213.242188 158.472656 C 218.25 153.464844 219.441406 146.082031 216.851562 139.925781 L 223.296875 133.484375 C 226.898438 136.207031 231.292969 137.714844 235.839844 137.714844 C 236.261719 137.714844 236.6875 137.703125 237.113281 137.675781 C 237.160156 137.675781 237.203125 137.660156 237.25 137.65625 C 255.148438 158.636719 244.257812 183.554688 227.558594 200.230469 Z M 264.328125 40.78125 L 272.628906 49.082031 L 256.976562 64.734375 L 248.675781 56.433594 Z M 76.15625 209.722656 L 82.027344 204.214844 C 82.714844 203.558594 83.984375 203.554688 84.683594 204.214844 L 144.164062 260.042969 C 146.566406 262.296875 149.53125 263.882812 152.726562 264.671875 C 152.257812 266.664062 151.941406 268.703125 151.941406 270.792969 L 151.941406 280.535156 C 151.914062 280.558594 151.882812 280.582031 151.855469 280.605469 Z M 269.535156 320.613281 L 269.535156 331.160156 L 86.488281 331.160156 L 86.488281 320.613281 C 86.488281 317.023438 89.414062 314.097656 93.011719 314.097656 L 152.847656 314.097656 C 153.269531 314.097656 153.675781 314.035156 154.070312 313.945312 C 154.460938 314.035156 154.867188 314.097656 155.289062 314.097656 C 155.761719 314.097656 156.210938 314.015625 156.648438 313.902344 L 165.1875 313.902344 C 167.65625 313.902344 169.65625 311.902344 169.65625 309.433594 C 169.65625 306.96875 167.65625 304.964844 165.1875 304.964844 L 160.652344 304.964844 L 160.652344 284.695312 C 160.652344 284.570312 160.621094 284.449219 160.613281 284.324219 C 160.746094 283.90625 160.878906 283.480469 160.878906 283.019531 L 160.878906 270.796875 C 160.878906 267.105469 162 263.570312 164.125 260.566406 C 164.179688 260.492188 164.183594 260.398438 164.234375 260.316406 C 164.347656 260.203125 164.476562 260.113281 164.582031 259.988281 C 167.789062 256.167969 172.484375 253.980469 177.460938 253.980469 L 178.558594 253.980469 C 179.664062 253.980469 180.773438 254.089844 181.847656 254.300781 C 181.984375 254.332031 182.121094 254.328125 182.257812 254.34375 C 182.679688 254.734375 183.183594 255.050781 183.761719 255.257812 C 190.742188 257.789062 195.433594 264.476562 195.433594 271.910156 L 195.433594 278.039062 C 195.40625 278.246094 195.367188 278.445312 195.367188 278.660156 L 195.367188 304.964844 L 193.574219 304.964844 C 191.105469 304.964844 189.105469 306.964844 189.105469 309.433594 C 189.105469 311.898438 191.105469 313.902344 193.574219 313.902344 L 198.84375 313.902344 C 199.28125 314.015625 199.730469 314.09375 200.203125 314.09375 L 263.011719 314.09375 C 266.609375 314.097656 269.535156 317.023438 269.535156 320.613281 Z M 245.542969 228.988281 L 204.242188 270.308594 C 203.742188 262.097656 199.480469 254.679688 192.871094 250.078125 L 235.136719 207.816406 C 259.632812 183.359375 263.992188 154.421875 247.042969 132.59375 C 248.0625 131.898438 249.035156 131.125 249.925781 130.230469 C 251.84375 128.3125 253.269531 126.058594 254.253906 123.640625 C 277.355469 155.785156 274.339844 200.195312 245.542969 228.988281 Z M 124.644531 192.222656 L 121.246094 188.824219 L 131.667969 178.402344 L 135.066406 181.800781 Z M 146.554688 182.351562 L 144.464844 180.261719 C 144.15625 179.949219 143.773438 179.78125 143.414062 179.5625 C 143.390625 179.539062 143.382812 179.507812 143.363281 179.488281 L 133.984375 170.109375 C 133.777344 169.785156 133.628906 169.429688 133.34375 169.144531 C 133.222656 169.023438 133.066406 168.980469 132.9375 168.875 C 132.828125 168.742188 132.785156 168.582031 132.664062 168.460938 L 130.605469 166.40625 L 155.582031 141.433594 L 171.523438 157.378906 Z M 205.660156 150.894531 L 197.328125 159.222656 C 194.910156 161.648438 190.960938 161.652344 188.535156 159.222656 L 153.738281 124.425781 C 151.316406 122.003906 151.316406 118.058594 153.738281 115.636719 L 162.070312 107.300781 C 164.492188 104.878906 168.4375 104.875 170.863281 107.304688 C 170.910156 107.351562 170.976562 107.367188 171.027344 107.414062 L 175.660156 112.042969 C 176.535156 112.917969 177.679688 113.351562 178.820312 113.351562 C 179.964844 113.351562 181.105469 112.917969 181.980469 112.042969 C 183.722656 110.296875 183.722656 107.46875 181.980469 105.726562 L 180.757812 104.507812 L 230.644531 54.621094 C 231 54.269531 231.332031 54.253906 231.699219 54.625 L 258.816406 81.738281 C 259.066406 81.988281 259.066406 82.546875 258.816406 82.800781 L 243.488281 98.132812 C 236.214844 95.0625 227.621094 96.601562 221.957031 102.265625 C 216.289062 107.929688 214.75 116.523438 217.824219 123.792969 L 208.894531 132.722656 L 204.429688 128.34375 C 202.667969 126.617188 199.832031 126.644531 198.109375 128.410156 C 196.382812 130.171875 196.410156 133.003906 198.175781 134.726562 L 205.585938 141.992188 C 205.617188 142.027344 205.628906 142.070312 205.660156 142.105469 C 208.082031 144.527344 208.082031 148.472656 205.660156 150.894531 Z M 227.878906 123.105469 C 227.351562 122.429688 226.6875 121.9375 225.964844 121.59375 C 225.960938 121.585938 225.960938 121.574219 225.957031 121.570312 C 223.5625 117.207031 224.347656 111.703125 227.871094 108.175781 C 231.273438 104.777344 236.523438 103.941406 240.8125 106.0625 C 241.117188 106.542969 241.480469 106.992188 241.945312 107.371094 C 242.386719 107.734375 242.816406 108.125 243.242188 108.546875 C 244.0625 109.363281 244.796875 110.265625 245.421875 111.234375 C 245.59375 111.5 245.808594 111.710938 246.015625 111.9375 C 246.027344 111.972656 246.019531 112.007812 246.035156 112.042969 C 246.152344 112.335938 246.226562 112.636719 246.320312 112.933594 C 246.386719 113.207031 246.441406 113.472656 246.550781 113.734375 C 247.371094 117.375 246.300781 121.21875 243.613281 123.910156 C 242.441406 125.078125 241.070312 125.949219 239.535156 126.492188 C 239.464844 126.519531 239.417969 126.578125 239.347656 126.605469 C 238.675781 126.617188 238.011719 126.742188 237.378906 127.003906 C 237.078125 126.972656 236.769531 126.953125 236.457031 126.976562 C 233.585938 127.171875 230.746094 126.082031 228.703125 124.039062 C 228.410156 123.742188 228.132812 123.429688 227.878906 123.105469 Z M 227.878906 123.105469 " fill-opacity="1" fill-rule="nonzero"/></g><path fill="#ffffff" d="M 191.789062 115.890625 C 190.039062 114.152344 187.207031 114.171875 185.472656 115.925781 C 183.738281 117.679688 183.75 120.507812 185.507812 122.242188 L 186.46875 123.1875 C 187.335938 124.039062 188.464844 124.460938 189.589844 124.460938 C 190.75 124.460938 191.90625 124.011719 192.785156 123.117188 C 194.507812 121.351562 194.476562 118.523438 192.714844 116.800781 Z M 191.789062 115.890625 " fill-opacity="1" fill-rule="nonzero"/><path fill="#ffffff" d="M 228.320312 70.585938 C 229.085938 70.585938 229.851562 70.300781 230.441406 69.726562 L 233.085938 67.152344 C 234.289062 65.984375 234.316406 64.058594 233.144531 62.855469 C 231.972656 61.65625 230.050781 61.628906 228.847656 62.796875 L 226.203125 65.371094 C 225 66.546875 224.972656 68.46875 226.144531 69.667969 C 226.738281 70.28125 227.527344 70.585938 228.320312 70.585938 Z M 228.320312 70.585938 " fill-opacity="1" fill-rule="nonzero"/><path fill="#ffffff" d="M 224.0625 76.660156 C 225.265625 75.488281 225.292969 73.566406 224.121094 72.363281 C 222.949219 71.164062 221.027344 71.136719 219.824219 72.304688 L 207.621094 84.179688 L 211.859375 88.535156 Z M 224.0625 76.660156 " fill-opacity="1" fill-rule="nonzero"/><path fill="#ffffff" d="M 184.570312 273.820312 C 184.570312 274.246094 184.527344 274.667969 184.445312 275.085938 C 184.359375 275.503906 184.238281 275.910156 184.074219 276.300781 C 183.914062 276.695312 183.714844 277.066406 183.476562 277.421875 C 183.238281 277.773438 182.972656 278.101562 182.671875 278.402344 C 182.371094 278.703125 182.042969 278.972656 181.6875 279.207031 C 181.335938 279.445312 180.960938 279.644531 180.570312 279.808594 C 180.175781 279.96875 179.769531 280.09375 179.355469 280.175781 C 178.9375 280.257812 178.515625 280.300781 178.089844 280.300781 C 177.664062 280.300781 177.242188 280.257812 176.824219 280.175781 C 176.410156 280.09375 176.003906 279.96875 175.609375 279.808594 C 175.21875 279.644531 174.84375 279.445312 174.492188 279.207031 C 174.136719 278.972656 173.808594 278.703125 173.507812 278.402344 C 173.207031 278.101562 172.9375 277.773438 172.703125 277.421875 C 172.464844 277.066406 172.265625 276.695312 172.105469 276.300781 C 171.941406 275.910156 171.820312 275.503906 171.734375 275.085938 C 171.652344 274.667969 171.609375 274.246094 171.609375 273.820312 C 171.609375 273.398438 171.652344 272.976562 171.734375 272.558594 C 171.820312 272.140625 171.941406 271.734375 172.105469 271.34375 C 172.265625 270.949219 172.464844 270.578125 172.703125 270.222656 C 172.9375 269.867188 173.207031 269.542969 173.507812 269.242188 C 173.808594 268.941406 174.136719 268.671875 174.492188 268.433594 C 174.84375 268.199219 175.21875 268 175.609375 267.835938 C 176.003906 267.671875 176.410156 267.550781 176.824219 267.46875 C 177.242188 267.386719 177.664062 267.34375 178.089844 267.34375 C 178.515625 267.34375 178.9375 267.386719 179.355469 267.46875 C 179.769531 267.550781 180.175781 267.671875 180.570312 267.835938 C 180.960938 268 181.335938 268.199219 181.6875 268.433594 C 182.042969 268.671875 182.371094 268.941406 182.671875 269.242188 C 182.972656 269.542969 183.238281 269.867188 183.476562 270.222656 C 183.714844 270.578125 183.914062 270.949219 184.074219 271.34375 C 184.238281 271.734375 184.359375 272.140625 184.445312 272.558594 C 184.527344 272.976562 184.570312 273.398438 184.570312 273.820312 Z M 184.570312 273.820312 " fill-opacity="1" fill-rule="nonzero"/></svg>