<svg xmlns="http://www.w3.org/2000/svg" xmlns:xlink="http://www.w3.org/1999/xlink" width="500" zoomAndPan="magnify" viewBox="0 0 375 374.999991" height="500" preserveAspectRatio="xMidYMid meet" version="1.0"><defs><g/></defs><g fill="#69a297" fill-opacity="1"><g transform="translate(214.198366, 374.997926)"><g><path d="M 0 -6.8125 L -54.328125 -6.8125 L -54.328125 -29.765625 C -54.328125 -32.109375 -53.84375 -34.25 -52.875 -36.1875 C -51.90625 -38.125 -50.585938 -39.816406 -48.921875 -41.265625 C -47.265625 -42.722656 -45.429688 -43.847656 -43.421875 -44.640625 C -41.410156 -45.429688 -39.359375 -45.828125 -37.265625 -45.828125 C -34.660156 -45.828125 -32.207031 -45.328125 -29.90625 -44.328125 C -27.613281 -43.335938 -25.675781 -41.9375 -24.09375 -40.125 C -22.519531 -38.320312 -21.476562 -36.195312 -20.96875 -33.75 L 0 -47.0625 L 0 -41.015625 L -20.046875 -28.234375 L -20.046875 -12.171875 L 0 -12.171875 Z M -24.796875 -12.171875 L -24.796875 -29.921875 C -24.796875 -32.054688 -25.378906 -33.914062 -26.546875 -35.5 C -27.722656 -37.082031 -29.265625 -38.304688 -31.171875 -39.171875 C -33.085938 -40.046875 -35.117188 -40.484375 -37.265625 -40.484375 C -39.453125 -40.484375 -41.476562 -39.984375 -43.34375 -38.984375 C -45.207031 -37.992188 -46.710938 -36.664062 -47.859375 -35 C -49.003906 -33.34375 -49.578125 -31.492188 -49.578125 -29.453125 L -49.578125 -12.171875 Z M -24.796875 -12.171875 "/></g></g></g><g fill="#69a297" fill-opacity="1"><g transform="translate(214.198366, 325.031486)"><g><path d="M 0.765625 -22.953125 C 0.765625 -20.097656 0.21875 -17.445312 -0.875 -15 C -1.976562 -12.550781 -3.484375 -10.429688 -5.390625 -8.640625 C -7.304688 -6.859375 -9.515625 -5.46875 -12.015625 -4.46875 C -14.515625 -3.476562 -17.191406 -2.984375 -20.046875 -2.984375 C -23.765625 -2.984375 -27.179688 -3.835938 -30.296875 -5.546875 C -33.410156 -7.253906 -35.894531 -9.613281 -37.75 -12.625 C -39.613281 -15.632812 -40.546875 -19.050781 -40.546875 -22.875 C -40.546875 -26.800781 -39.601562 -30.226562 -37.71875 -33.15625 C -35.832031 -36.09375 -33.34375 -38.40625 -30.25 -40.09375 C -27.164062 -41.78125 -23.789062 -42.625 -20.125 -42.625 C -19.71875 -42.625 -19.320312 -42.625 -18.9375 -42.625 C -18.550781 -42.625 -18.257812 -42.597656 -18.0625 -42.546875 L -18.0625 -8.421875 C -15.195312 -8.671875 -12.65625 -9.472656 -10.4375 -10.828125 C -8.21875 -12.179688 -6.457031 -13.941406 -5.15625 -16.109375 C -3.863281 -18.273438 -3.21875 -20.632812 -3.21875 -23.1875 C -3.21875 -25.789062 -3.878906 -28.25 -5.203125 -30.5625 C -6.523438 -32.882812 -8.257812 -34.503906 -10.40625 -35.421875 L -9.1875 -39.9375 C -7.289062 -39.125 -5.578125 -37.875 -4.046875 -36.1875 C -2.523438 -34.507812 -1.34375 -32.535156 -0.5 -30.265625 C 0.34375 -27.992188 0.765625 -25.554688 0.765625 -22.953125 Z M -21.8125 -8.265625 L -21.8125 -37.71875 C -24.71875 -37.519531 -27.265625 -36.742188 -29.453125 -35.390625 C -31.648438 -34.035156 -33.375 -32.273438 -34.625 -30.109375 C -35.875 -27.941406 -36.5 -25.554688 -36.5 -22.953125 C -36.5 -20.347656 -35.875 -17.972656 -34.625 -15.828125 C -33.375 -13.691406 -31.640625 -11.945312 -29.421875 -10.59375 C -27.203125 -9.238281 -24.664062 -8.460938 -21.8125 -8.265625 Z M -21.8125 -8.265625 "/></g></g></g><g fill="#69a297" fill-opacity="1"><g transform="translate(214.198366, 280.115259)"><g><path d="M 0.765625 -18.828125 C 0.765625 -15.554688 0.226562 -12.519531 -0.84375 -9.71875 C -1.914062 -6.914062 -3.546875 -4.492188 -5.734375 -2.453125 L -9.40625 -4.59375 C -7.320312 -6.832031 -5.804688 -9.085938 -4.859375 -11.359375 C -3.910156 -13.628906 -3.4375 -16.039062 -3.4375 -18.59375 C -3.4375 -21.707031 -4.0625 -24.234375 -5.3125 -26.171875 C -6.5625 -28.109375 -8.363281 -29.078125 -10.71875 -29.078125 C -12.289062 -29.078125 -13.5 -28.601562 -14.34375 -27.65625 C -15.1875 -26.71875 -15.875 -25.367188 -16.40625 -23.609375 C -16.945312 -21.847656 -17.523438 -19.742188 -18.140625 -17.296875 C -18.898438 -14.535156 -19.703125 -12.222656 -20.546875 -10.359375 C -21.390625 -8.503906 -22.457031 -7.101562 -23.75 -6.15625 C -25.050781 -5.21875 -26.75 -4.75 -28.84375 -4.75 C -31.445312 -4.75 -33.601562 -5.394531 -35.3125 -6.6875 C -37.019531 -7.988281 -38.316406 -9.773438 -39.203125 -12.046875 C -40.097656 -14.316406 -40.546875 -16.859375 -40.546875 -19.671875 C -40.546875 -22.722656 -40.0625 -25.421875 -39.09375 -27.765625 C -38.125 -30.117188 -36.773438 -32.035156 -35.046875 -33.515625 L -31.53125 -30.984375 C -33.15625 -29.554688 -34.363281 -27.859375 -35.15625 -25.890625 C -35.945312 -23.929688 -36.34375 -21.753906 -36.34375 -19.359375 C -36.34375 -17.722656 -36.125 -16.164062 -35.6875 -14.6875 C -35.257812 -13.207031 -34.546875 -11.992188 -33.546875 -11.046875 C -32.554688 -10.109375 -31.191406 -9.640625 -29.453125 -9.640625 C -28.023438 -9.640625 -26.914062 -9.992188 -26.125 -10.703125 C -25.332031 -11.421875 -24.671875 -12.492188 -24.140625 -13.921875 C -23.609375 -15.347656 -23.035156 -17.109375 -22.421875 -19.203125 C -21.597656 -22.210938 -20.765625 -24.835938 -19.921875 -27.078125 C -19.085938 -29.328125 -18.003906 -31.0625 -16.671875 -32.28125 C -15.347656 -33.507812 -13.488281 -34.125 -11.09375 -34.125 C -7.375 -34.125 -4.46875 -32.71875 -2.375 -29.90625 C -0.28125 -27.101562 0.765625 -23.410156 0.765625 -18.828125 Z M 0.765625 -18.828125 "/></g></g></g><g fill="#69a297" fill-opacity="1"><g transform="translate(214.198366, 243.156933)"><g><path d="M 0.765625 -22.71875 C 0.765625 -19.863281 0.21875 -17.222656 -0.875 -14.796875 C -1.976562 -12.378906 -3.484375 -10.289062 -5.390625 -8.53125 C -7.304688 -6.769531 -9.5 -5.40625 -11.96875 -4.4375 C -14.445312 -3.46875 -17.0625 -2.984375 -19.8125 -2.984375 C -22.675781 -2.984375 -25.34375 -3.46875 -27.8125 -4.4375 C -30.289062 -5.40625 -32.484375 -6.78125 -34.390625 -8.5625 C -36.304688 -10.351562 -37.8125 -12.457031 -38.90625 -14.875 C -40 -17.300781 -40.546875 -19.941406 -40.546875 -22.796875 C -40.546875 -25.660156 -40 -28.289062 -38.90625 -30.6875 C -37.8125 -33.082031 -36.304688 -35.171875 -34.390625 -36.953125 C -32.484375 -38.742188 -30.289062 -40.125 -27.8125 -41.09375 C -25.34375 -42.0625 -22.675781 -42.546875 -19.8125 -42.546875 C -17.0625 -42.546875 -14.445312 -42.0625 -11.96875 -41.09375 C -9.5 -40.125 -7.304688 -38.757812 -5.390625 -37 C -3.484375 -35.238281 -1.976562 -33.144531 -0.875 -30.71875 C 0.21875 -28.300781 0.765625 -25.632812 0.765625 -22.71875 Z M -19.734375 -8.265625 C -16.773438 -8.265625 -14.082031 -8.914062 -11.65625 -10.21875 C -9.238281 -11.519531 -7.328125 -13.265625 -5.921875 -15.453125 C -4.523438 -17.648438 -3.828125 -20.070312 -3.828125 -22.71875 C -3.828125 -25.375 -4.539062 -27.796875 -5.96875 -29.984375 C -7.394531 -32.179688 -9.34375 -33.941406 -11.8125 -35.265625 C -14.289062 -36.597656 -16.984375 -37.265625 -19.890625 -37.265625 C -22.847656 -37.265625 -25.550781 -36.597656 -28 -35.265625 C -30.445312 -33.941406 -32.382812 -32.179688 -33.8125 -29.984375 C -35.25 -27.796875 -35.96875 -25.375 -35.96875 -22.71875 C -35.96875 -20.070312 -35.226562 -17.664062 -33.75 -15.5 C -32.269531 -13.332031 -30.316406 -11.582031 -27.890625 -10.25 C -25.460938 -8.925781 -22.742188 -8.265625 -19.734375 -8.265625 Z M -19.734375 -8.265625 "/></g></g></g><g fill="#69a297" fill-opacity="1"><g transform="translate(214.198366, 197.628569)"><g><path d="M -16.453125 -5.359375 L -39.859375 -5.359375 L -39.859375 -10.5625 L -17.375 -10.5625 C -12.832031 -10.5625 -9.4375 -11.335938 -7.1875 -12.890625 C -4.945312 -14.453125 -3.828125 -16.757812 -3.828125 -19.8125 C -3.828125 -21.851562 -4.269531 -23.828125 -5.15625 -25.734375 C -6.050781 -27.648438 -7.328125 -29.347656 -8.984375 -30.828125 C -10.648438 -32.316406 -12.578125 -33.441406 -14.765625 -34.203125 L -39.859375 -34.203125 L -39.859375 -39.40625 L -6.28125 -39.40625 C -5.5625 -39.40625 -5.035156 -39.554688 -4.703125 -39.859375 C -4.367188 -40.171875 -4.175781 -40.628906 -4.125 -41.234375 L 0 -41.234375 C 0.0507812 -40.628906 0.0859375 -40.144531 0.109375 -39.78125 C 0.140625 -39.425781 0.15625 -39.097656 0.15625 -38.796875 C 0.0507812 -37.773438 -0.351562 -36.894531 -1.0625 -36.15625 C -1.78125 -35.414062 -2.648438 -35.019531 -3.671875 -34.96875 L -9.03125 -34.8125 C -5.96875 -33.082031 -3.566406 -30.722656 -1.828125 -27.734375 C -0.0976562 -24.753906 0.765625 -21.53125 0.765625 -18.0625 C 0.765625 -13.875 -0.6875 -10.707031 -3.59375 -8.5625 C -6.5 -6.425781 -10.785156 -5.359375 -16.453125 -5.359375 Z M -16.453125 -5.359375 "/></g></g></g><g fill="#69a297" fill-opacity="1"><g transform="translate(214.198366, 152.176713)"><g><path d="M -35.28125 -25.625 C -35.175781 -22.15625 -34.203125 -19.109375 -32.359375 -16.484375 C -30.523438 -13.859375 -28.003906 -12.007812 -24.796875 -10.9375 L 0 -10.9375 L 0 -5.734375 L -39.859375 -5.734375 L -39.859375 -10.640625 L -30.296875 -10.640625 C -33.109375 -12.015625 -35.378906 -13.835938 -37.109375 -16.109375 C -38.847656 -18.378906 -39.816406 -20.789062 -40.015625 -23.34375 C -40.066406 -23.851562 -40.09375 -24.296875 -40.09375 -24.671875 C -40.09375 -25.054688 -40.066406 -25.375 -40.015625 -25.625 Z M -35.28125 -25.625 "/></g></g></g><g fill="#69a297" fill-opacity="1"><g transform="translate(214.198366, 125.318796)"><g><path d="M 0.765625 -23.03125 C 0.765625 -20.125 0.21875 -17.457031 -0.875 -15.03125 C -1.976562 -12.613281 -3.5 -10.5 -5.4375 -8.6875 C -7.375 -6.875 -9.59375 -5.46875 -12.09375 -4.46875 C -14.59375 -3.476562 -17.242188 -2.984375 -20.046875 -2.984375 C -23.816406 -2.984375 -27.257812 -3.820312 -30.375 -5.5 C -33.488281 -7.1875 -35.960938 -9.535156 -37.796875 -12.546875 C -39.628906 -15.554688 -40.546875 -19.023438 -40.546875 -22.953125 C -40.546875 -26.679688 -39.691406 -29.972656 -37.984375 -32.828125 C -36.273438 -35.679688 -33.96875 -37.796875 -31.0625 -39.171875 L -29.453125 -34.125 C -31.492188 -33 -33.085938 -31.425781 -34.234375 -29.40625 C -35.390625 -27.394531 -35.96875 -25.164062 -35.96875 -22.71875 C -35.96875 -20.070312 -35.273438 -17.648438 -33.890625 -15.453125 C -32.515625 -13.265625 -30.628906 -11.519531 -28.234375 -10.21875 C -25.835938 -8.914062 -23.109375 -8.265625 -20.046875 -8.265625 C -17.035156 -8.265625 -14.304688 -8.925781 -11.859375 -10.25 C -9.410156 -11.582031 -7.457031 -13.34375 -6 -15.53125 C -4.550781 -17.726562 -3.828125 -20.148438 -3.828125 -22.796875 C -3.828125 -24.535156 -4.128906 -26.207031 -4.734375 -27.8125 C -5.347656 -29.414062 -6.175781 -30.816406 -7.21875 -32.015625 C -8.269531 -33.210938 -9.410156 -34.019531 -10.640625 -34.4375 L -9.109375 -39.5625 C -7.222656 -38.84375 -5.523438 -37.65625 -4.015625 -36 C -2.515625 -34.34375 -1.34375 -32.40625 -0.5 -30.1875 C 0.34375 -27.96875 0.765625 -25.582031 0.765625 -23.03125 Z M 0.765625 -23.03125 "/></g></g></g><g fill="#69a297" fill-opacity="1"><g transform="translate(214.198366, 83.310249)"><g><path d="M 0.765625 -22.953125 C 0.765625 -20.097656 0.21875 -17.445312 -0.875 -15 C -1.976562 -12.550781 -3.484375 -10.429688 -5.390625 -8.640625 C -7.304688 -6.859375 -9.515625 -5.46875 -12.015625 -4.46875 C -14.515625 -3.476562 -17.191406 -2.984375 -20.046875 -2.984375 C -23.765625 -2.984375 -27.179688 -3.835938 -30.296875 -5.546875 C -33.410156 -7.253906 -35.894531 -9.613281 -37.75 -12.625 C -39.613281 -15.632812 -40.546875 -19.050781 -40.546875 -22.875 C -40.546875 -26.800781 -39.601562 -30.226562 -37.71875 -33.15625 C -35.832031 -36.09375 -33.34375 -38.40625 -30.25 -40.09375 C -27.164062 -41.78125 -23.789062 -42.625 -20.125 -42.625 C -19.71875 -42.625 -19.320312 -42.625 -18.9375 -42.625 C -18.550781 -42.625 -18.257812 -42.597656 -18.0625 -42.546875 L -18.0625 -8.421875 C -15.195312 -8.671875 -12.65625 -9.472656 -10.4375 -10.828125 C -8.21875 -12.179688 -6.457031 -13.941406 -5.15625 -16.109375 C -3.863281 -18.273438 -3.21875 -20.632812 -3.21875 -23.1875 C -3.21875 -25.789062 -3.878906 -28.25 -5.203125 -30.5625 C -6.523438 -32.882812 -8.257812 -34.503906 -10.40625 -35.421875 L -9.1875 -39.9375 C -7.289062 -39.125 -5.578125 -37.875 -4.046875 -36.1875 C -2.523438 -34.507812 -1.34375 -32.535156 -0.5 -30.265625 C 0.34375 -27.992188 0.765625 -25.554688 0.765625 -22.953125 Z M -21.8125 -8.265625 L -21.8125 -37.71875 C -24.71875 -37.519531 -27.265625 -36.742188 -29.453125 -35.390625 C -31.648438 -34.035156 -33.375 -32.273438 -34.625 -30.109375 C -35.875 -27.941406 -36.5 -25.554688 -36.5 -22.953125 C -36.5 -20.347656 -35.875 -17.972656 -34.625 -15.828125 C -33.375 -13.691406 -31.640625 -11.945312 -29.421875 -10.59375 C -27.203125 -9.238281 -24.664062 -8.460938 -21.8125 -8.265625 Z M -21.8125 -8.265625 "/></g></g></g><g fill="#69a297" fill-opacity="1"><g transform="translate(214.198366, 38.39403)"><g><path d="M 0.765625 -18.828125 C 0.765625 -15.554688 0.226562 -12.519531 -0.84375 -9.71875 C -1.914062 -6.914062 -3.546875 -4.492188 -5.734375 -2.453125 L -9.40625 -4.59375 C -7.320312 -6.832031 -5.804688 -9.085938 -4.859375 -11.359375 C -3.910156 -13.628906 -3.4375 -16.039062 -3.4375 -18.59375 C -3.4375 -21.707031 -4.0625 -24.234375 -5.3125 -26.171875 C -6.5625 -28.109375 -8.363281 -29.078125 -10.71875 -29.078125 C -12.289062 -29.078125 -13.5 -28.601562 -14.34375 -27.65625 C -15.1875 -26.71875 -15.875 -25.367188 -16.40625 -23.609375 C -16.945312 -21.847656 -17.523438 -19.742188 -18.140625 -17.296875 C -18.898438 -14.535156 -19.703125 -12.222656 -20.546875 -10.359375 C -21.390625 -8.503906 -22.457031 -7.101562 -23.75 -6.15625 C -25.050781 -5.21875 -26.75 -4.75 -28.84375 -4.75 C -31.445312 -4.75 -33.601562 -5.394531 -35.3125 -6.6875 C -37.019531 -7.988281 -38.316406 -9.773438 -39.203125 -12.046875 C -40.097656 -14.316406 -40.546875 -16.859375 -40.546875 -19.671875 C -40.546875 -22.722656 -40.0625 -25.421875 -39.09375 -27.765625 C -38.125 -30.117188 -36.773438 -32.035156 -35.046875 -33.515625 L -31.53125 -30.984375 C -33.15625 -29.554688 -34.363281 -27.859375 -35.15625 -25.890625 C -35.945312 -23.929688 -36.34375 -21.753906 -36.34375 -19.359375 C -36.34375 -17.722656 -36.125 -16.164062 -35.6875 -14.6875 C -35.257812 -13.207031 -34.546875 -11.992188 -33.546875 -11.046875 C -32.554688 -10.109375 -31.191406 -9.640625 -29.453125 -9.640625 C -28.023438 -9.640625 -26.914062 -9.992188 -26.125 -10.703125 C -25.332031 -11.421875 -24.671875 -12.492188 -24.140625 -13.921875 C -23.609375 -15.347656 -23.035156 -17.109375 -22.421875 -19.203125 C -21.597656 -22.210938 -20.765625 -24.835938 -19.921875 -27.078125 C -19.085938 -29.328125 -18.003906 -31.0625 -16.671875 -32.28125 C -15.347656 -33.507812 -13.488281 -34.125 -11.09375 -34.125 C -7.375 -34.125 -4.46875 -32.71875 -2.375 -29.90625 C -0.28125 -27.101562 0.765625 -23.410156 0.765625 -18.828125 Z M 0.765625 -18.828125 "/></g></g></g></svg>