<svg xmlns="http://www.w3.org/2000/svg" xmlns:xlink="http://www.w3.org/1999/xlink" width="500" zoomAndPan="magnify" viewBox="0 0 375 374.999991" height="500" preserveAspectRatio="xMidYMid meet" version="1.0"><defs><g/></defs><g fill="#202c59" fill-opacity="1"><g transform="translate(209.687205, 374.998862)"><g><path d="M 0 -6.796875 L -54.21875 -6.796875 L -54.21875 -29.703125 C -54.21875 -32.046875 -53.734375 -34.179688 -52.765625 -36.109375 C -51.796875 -38.046875 -50.484375 -39.738281 -48.828125 -41.1875 C -47.171875 -42.644531 -45.335938 -43.765625 -43.328125 -44.546875 C -41.316406 -45.335938 -39.269531 -45.734375 -37.1875 -45.734375 C -34.59375 -45.734375 -32.148438 -45.238281 -29.859375 -44.25 C -27.566406 -43.257812 -25.628906 -41.859375 -24.046875 -40.046875 C -22.472656 -38.242188 -21.429688 -36.117188 -20.921875 -33.671875 L 0 -46.96875 L 0 -40.921875 L -20 -28.171875 L -20 -12.140625 L 0 -12.140625 Z M -24.734375 -12.140625 L -24.734375 -29.859375 C -24.734375 -31.992188 -25.316406 -33.847656 -26.484375 -35.421875 C -27.660156 -37.003906 -29.203125 -38.226562 -31.109375 -39.09375 C -33.023438 -39.957031 -35.050781 -40.390625 -37.1875 -40.390625 C -39.375 -40.390625 -41.394531 -39.894531 -43.25 -38.90625 C -45.113281 -37.914062 -46.617188 -36.59375 -47.765625 -34.9375 C -48.910156 -33.28125 -49.484375 -31.429688 -49.484375 -29.390625 L -49.484375 -12.140625 Z M -24.734375 -12.140625 "/></g></g></g><g fill="#202c59" fill-opacity="1"><g transform="translate(209.687205, 325.142299)"><g><path d="M 0.765625 -22.90625 C 0.765625 -20.050781 0.21875 -17.398438 -0.875 -14.953125 C -1.96875 -12.515625 -3.46875 -10.40625 -5.375 -8.625 C -7.289062 -6.84375 -9.492188 -5.457031 -11.984375 -4.46875 C -14.484375 -3.476562 -17.15625 -2.984375 -20 -2.984375 C -23.71875 -2.984375 -27.128906 -3.832031 -30.234375 -5.53125 C -33.335938 -7.238281 -35.816406 -9.59375 -37.671875 -12.59375 C -39.535156 -15.601562 -40.46875 -19.015625 -40.46875 -22.828125 C -40.46875 -26.753906 -39.523438 -30.179688 -37.640625 -33.109375 C -35.753906 -36.035156 -33.269531 -38.335938 -30.1875 -40.015625 C -27.113281 -41.691406 -23.742188 -42.53125 -20.078125 -42.53125 C -19.671875 -42.53125 -19.273438 -42.53125 -18.890625 -42.53125 C -18.515625 -42.53125 -18.222656 -42.503906 -18.015625 -42.453125 L -18.015625 -8.40625 C -15.171875 -8.65625 -12.640625 -9.453125 -10.421875 -10.796875 C -8.203125 -12.148438 -6.441406 -13.90625 -5.140625 -16.0625 C -3.847656 -18.226562 -3.203125 -20.585938 -3.203125 -23.140625 C -3.203125 -25.734375 -3.863281 -28.1875 -5.1875 -30.5 C -6.507812 -32.820312 -8.242188 -34.441406 -10.390625 -35.359375 L -9.15625 -39.859375 C -7.28125 -39.046875 -5.578125 -37.796875 -4.046875 -36.109375 C -2.515625 -34.429688 -1.328125 -32.457031 -0.484375 -30.1875 C 0.347656 -27.925781 0.765625 -25.5 0.765625 -22.90625 Z M -21.765625 -8.25 L -21.765625 -37.640625 C -24.660156 -37.441406 -27.203125 -36.664062 -29.390625 -35.3125 C -31.585938 -33.96875 -33.304688 -32.210938 -34.546875 -30.046875 C -35.796875 -27.878906 -36.421875 -25.5 -36.421875 -22.90625 C -36.421875 -20.3125 -35.796875 -17.941406 -34.546875 -15.796875 C -33.304688 -13.660156 -31.578125 -11.914062 -29.359375 -10.5625 C -27.140625 -9.21875 -24.609375 -8.445312 -21.765625 -8.25 Z M -21.765625 -8.25 "/></g></g></g><g fill="#202c59" fill-opacity="1"><g transform="translate(209.687205, 280.324842)"><g><path d="M 0.765625 -18.78125 C 0.765625 -15.519531 0.234375 -12.488281 -0.828125 -9.6875 C -1.898438 -6.894531 -3.535156 -4.476562 -5.734375 -2.4375 L -9.390625 -4.578125 C -7.304688 -6.816406 -5.789062 -9.066406 -4.84375 -11.328125 C -3.90625 -13.597656 -3.4375 -16.007812 -3.4375 -18.5625 C -3.4375 -21.664062 -4.054688 -24.179688 -5.296875 -26.109375 C -6.546875 -28.046875 -8.34375 -29.015625 -10.6875 -29.015625 C -12.269531 -29.015625 -13.476562 -28.539062 -14.3125 -27.59375 C -15.15625 -26.65625 -15.84375 -25.304688 -16.375 -23.546875 C -16.914062 -21.796875 -17.488281 -19.695312 -18.09375 -17.25 C -18.863281 -14.507812 -19.664062 -12.207031 -20.5 -10.34375 C -21.34375 -8.488281 -22.410156 -7.085938 -23.703125 -6.140625 C -25.003906 -5.203125 -26.695312 -4.734375 -28.78125 -4.734375 C -31.382812 -4.734375 -33.535156 -5.378906 -35.234375 -6.671875 C -36.941406 -7.972656 -38.238281 -9.753906 -39.125 -12.015625 C -40.019531 -14.285156 -40.46875 -16.820312 -40.46875 -19.625 C -40.46875 -22.675781 -39.984375 -25.375 -39.015625 -27.71875 C -38.046875 -30.0625 -36.695312 -31.972656 -34.96875 -33.453125 L -31.453125 -30.921875 C -33.085938 -29.492188 -34.296875 -27.800781 -35.078125 -25.84375 C -35.867188 -23.882812 -36.265625 -21.707031 -36.265625 -19.3125 C -36.265625 -17.6875 -36.046875 -16.132812 -35.609375 -14.65625 C -35.179688 -13.1875 -34.472656 -11.976562 -33.484375 -11.03125 C -32.492188 -10.09375 -31.128906 -9.625 -29.390625 -9.625 C -27.972656 -9.625 -26.867188 -9.976562 -26.078125 -10.6875 C -25.285156 -11.40625 -24.625 -12.472656 -24.09375 -13.890625 C -23.5625 -15.316406 -22.988281 -17.078125 -22.375 -19.171875 C -21.5625 -22.171875 -20.734375 -24.789062 -19.890625 -27.03125 C -19.046875 -29.269531 -17.960938 -31 -16.640625 -32.21875 C -15.316406 -33.445312 -13.460938 -34.0625 -11.078125 -34.0625 C -7.359375 -34.0625 -4.453125 -32.660156 -2.359375 -29.859375 C -0.273438 -27.054688 0.765625 -23.363281 0.765625 -18.78125 Z M 0.765625 -18.78125 "/></g></g></g><g fill="#202c59" fill-opacity="1"><g transform="translate(209.687205, 243.447788)"><g><path d="M 0.765625 -22.671875 C 0.765625 -19.828125 0.21875 -17.195312 -0.875 -14.78125 C -1.96875 -12.363281 -3.46875 -10.273438 -5.375 -8.515625 C -7.289062 -6.753906 -9.484375 -5.390625 -11.953125 -4.421875 C -14.421875 -3.460938 -17.03125 -2.984375 -19.78125 -2.984375 C -22.625 -2.984375 -25.28125 -3.460938 -27.75 -4.421875 C -30.21875 -5.390625 -32.40625 -6.765625 -34.3125 -8.546875 C -36.226562 -10.328125 -37.734375 -12.425781 -38.828125 -14.84375 C -39.921875 -17.269531 -40.46875 -19.90625 -40.46875 -22.75 C -40.46875 -25.601562 -39.921875 -28.222656 -38.828125 -30.609375 C -37.734375 -33.003906 -36.226562 -35.09375 -34.3125 -36.875 C -32.40625 -38.65625 -30.21875 -40.03125 -27.75 -41 C -25.28125 -41.96875 -22.625 -42.453125 -19.78125 -42.453125 C -17.03125 -42.453125 -14.421875 -41.96875 -11.953125 -41 C -9.484375 -40.03125 -7.289062 -38.664062 -5.375 -36.90625 C -3.46875 -35.15625 -1.96875 -33.070312 -0.875 -30.65625 C 0.21875 -28.238281 0.765625 -25.578125 0.765625 -22.671875 Z M -19.703125 -8.25 C -16.742188 -8.25 -14.054688 -8.894531 -11.640625 -10.1875 C -9.222656 -11.488281 -7.3125 -13.234375 -5.90625 -15.421875 C -4.507812 -17.609375 -3.8125 -20.023438 -3.8125 -22.671875 C -3.8125 -25.328125 -4.523438 -27.75 -5.953125 -29.9375 C -7.378906 -32.125 -9.328125 -33.878906 -11.796875 -35.203125 C -14.265625 -36.523438 -16.953125 -37.1875 -19.859375 -37.1875 C -22.804688 -37.1875 -25.5 -36.523438 -27.9375 -35.203125 C -30.382812 -33.878906 -32.320312 -32.125 -33.75 -29.9375 C -35.175781 -27.75 -35.890625 -25.328125 -35.890625 -22.671875 C -35.890625 -20.023438 -35.148438 -17.617188 -33.671875 -15.453125 C -32.191406 -13.296875 -30.242188 -11.554688 -27.828125 -10.234375 C -25.410156 -8.910156 -22.703125 -8.25 -19.703125 -8.25 Z M -19.703125 -8.25 "/></g></g></g><g fill="#202c59" fill-opacity="1"><g transform="translate(209.687205, 198.01954)"><g><path d="M -16.421875 -5.34375 L -39.78125 -5.34375 L -39.78125 -10.53125 L -17.328125 -10.53125 C -12.796875 -10.53125 -9.410156 -11.304688 -7.171875 -12.859375 C -4.929688 -14.421875 -3.8125 -16.726562 -3.8125 -19.78125 C -3.8125 -21.8125 -4.253906 -23.78125 -5.140625 -25.6875 C -6.035156 -27.601562 -7.3125 -29.296875 -8.96875 -30.765625 C -10.625 -32.242188 -12.546875 -33.363281 -14.734375 -34.125 L -39.78125 -34.125 L -39.78125 -39.328125 L -6.265625 -39.328125 C -5.546875 -39.328125 -5.019531 -39.476562 -4.6875 -39.78125 C -4.363281 -40.082031 -4.175781 -40.539062 -4.125 -41.15625 L 0 -41.15625 C 0.0507812 -40.539062 0.0859375 -40.054688 0.109375 -39.703125 C 0.140625 -39.347656 0.15625 -39.019531 0.15625 -38.71875 C 0.0507812 -37.695312 -0.351562 -36.816406 -1.0625 -36.078125 C -1.78125 -35.335938 -2.648438 -34.941406 -3.671875 -34.890625 L -9.015625 -34.75 C -5.953125 -33.007812 -3.554688 -30.648438 -1.828125 -27.671875 C -0.0976562 -24.703125 0.765625 -21.484375 0.765625 -18.015625 C 0.765625 -13.847656 -0.679688 -10.691406 -3.578125 -8.546875 C -6.484375 -6.410156 -10.765625 -5.34375 -16.421875 -5.34375 Z M -16.421875 -5.34375 "/></g></g></g><g fill="#202c59" fill-opacity="1"><g transform="translate(209.687205, 152.667632)"><g><path d="M -35.203125 -25.578125 C -35.097656 -22.117188 -34.128906 -19.078125 -32.296875 -16.453125 C -30.460938 -13.828125 -27.941406 -11.984375 -24.734375 -10.921875 L 0 -10.921875 L 0 -5.734375 L -39.78125 -5.734375 L -39.78125 -10.609375 L -30.234375 -10.609375 C -33.035156 -11.984375 -35.300781 -13.800781 -37.03125 -16.0625 C -38.757812 -18.332031 -39.726562 -20.742188 -39.9375 -23.296875 C -39.988281 -23.796875 -40.015625 -24.238281 -40.015625 -24.625 C -40.015625 -25.007812 -39.988281 -25.328125 -39.9375 -25.578125 Z M -35.203125 -25.578125 "/></g></g></g><g fill="#202c59" fill-opacity="1"><g transform="translate(209.687205, 125.868776)"><g><path d="M 0.765625 -22.984375 C 0.765625 -20.078125 0.21875 -17.414062 -0.875 -15 C -1.96875 -12.582031 -3.484375 -10.46875 -5.421875 -8.65625 C -7.359375 -6.851562 -9.570312 -5.457031 -12.0625 -4.46875 C -14.5625 -3.476562 -17.207031 -2.984375 -20 -2.984375 C -23.769531 -2.984375 -27.207031 -3.820312 -30.3125 -5.5 C -33.414062 -7.175781 -35.882812 -9.515625 -37.71875 -12.515625 C -39.550781 -15.523438 -40.46875 -18.988281 -40.46875 -22.90625 C -40.46875 -26.625 -39.613281 -29.90625 -37.90625 -32.75 C -36.207031 -35.601562 -33.90625 -37.71875 -31 -39.09375 L -29.390625 -34.0625 C -31.429688 -32.9375 -33.023438 -31.367188 -34.171875 -29.359375 C -35.316406 -27.347656 -35.890625 -25.117188 -35.890625 -22.671875 C -35.890625 -20.023438 -35.203125 -17.609375 -33.828125 -15.421875 C -32.453125 -13.234375 -30.566406 -11.488281 -28.171875 -10.1875 C -25.785156 -8.894531 -23.0625 -8.25 -20 -8.25 C -17 -8.25 -14.273438 -8.910156 -11.828125 -10.234375 C -9.390625 -11.554688 -7.441406 -13.3125 -5.984375 -15.5 C -4.535156 -17.6875 -3.8125 -20.101562 -3.8125 -22.75 C -3.8125 -24.476562 -4.117188 -26.144531 -4.734375 -27.75 C -5.347656 -29.351562 -6.175781 -30.753906 -7.21875 -31.953125 C -8.257812 -33.148438 -9.390625 -33.953125 -10.609375 -34.359375 L -9.09375 -39.484375 C -7.207031 -38.765625 -5.507812 -37.578125 -4 -35.921875 C -2.5 -34.273438 -1.328125 -32.34375 -0.484375 -30.125 C 0.347656 -27.90625 0.765625 -25.523438 0.765625 -22.984375 Z M 0.765625 -22.984375 "/></g></g></g><g fill="#202c59" fill-opacity="1"><g transform="translate(209.687205, 83.952607)"><g><path d="M 0.765625 -22.90625 C 0.765625 -20.050781 0.21875 -17.398438 -0.875 -14.953125 C -1.96875 -12.515625 -3.46875 -10.40625 -5.375 -8.625 C -7.289062 -6.84375 -9.492188 -5.457031 -11.984375 -4.46875 C -14.484375 -3.476562 -17.15625 -2.984375 -20 -2.984375 C -23.71875 -2.984375 -27.128906 -3.832031 -30.234375 -5.53125 C -33.335938 -7.238281 -35.816406 -9.59375 -37.671875 -12.59375 C -39.535156 -15.601562 -40.46875 -19.015625 -40.46875 -22.828125 C -40.46875 -26.753906 -39.523438 -30.179688 -37.640625 -33.109375 C -35.753906 -36.035156 -33.269531 -38.335938 -30.1875 -40.015625 C -27.113281 -41.691406 -23.742188 -42.53125 -20.078125 -42.53125 C -19.671875 -42.53125 -19.273438 -42.53125 -18.890625 -42.53125 C -18.515625 -42.53125 -18.222656 -42.503906 -18.015625 -42.453125 L -18.015625 -8.40625 C -15.171875 -8.65625 -12.640625 -9.453125 -10.421875 -10.796875 C -8.203125 -12.148438 -6.441406 -13.90625 -5.140625 -16.0625 C -3.847656 -18.226562 -3.203125 -20.585938 -3.203125 -23.140625 C -3.203125 -25.734375 -3.863281 -28.1875 -5.1875 -30.5 C -6.507812 -32.820312 -8.242188 -34.441406 -10.390625 -35.359375 L -9.15625 -39.859375 C -7.28125 -39.046875 -5.578125 -37.796875 -4.046875 -36.109375 C -2.515625 -34.429688 -1.328125 -32.457031 -0.484375 -30.1875 C 0.347656 -27.925781 0.765625 -25.5 0.765625 -22.90625 Z M -21.765625 -8.25 L -21.765625 -37.640625 C -24.660156 -37.441406 -27.203125 -36.664062 -29.390625 -35.3125 C -31.585938 -33.96875 -33.304688 -32.210938 -34.546875 -30.046875 C -35.796875 -27.878906 -36.421875 -25.5 -36.421875 -22.90625 C -36.421875 -20.3125 -35.796875 -17.941406 -34.546875 -15.796875 C -33.304688 -13.660156 -31.578125 -11.914062 -29.359375 -10.5625 C -27.140625 -9.21875 -24.609375 -8.445312 -21.765625 -8.25 Z M -21.765625 -8.25 "/></g></g></g><g fill="#202c59" fill-opacity="1"><g transform="translate(209.687205, 39.135158)"><g><path d="M 0.765625 -18.78125 C 0.765625 -15.519531 0.234375 -12.488281 -0.828125 -9.6875 C -1.898438 -6.894531 -3.535156 -4.476562 -5.734375 -2.4375 L -9.390625 -4.578125 C -7.304688 -6.816406 -5.789062 -9.066406 -4.84375 -11.328125 C -3.90625 -13.597656 -3.4375 -16.007812 -3.4375 -18.5625 C -3.4375 -21.664062 -4.054688 -24.179688 -5.296875 -26.109375 C -6.546875 -28.046875 -8.34375 -29.015625 -10.6875 -29.015625 C -12.269531 -29.015625 -13.476562 -28.539062 -14.3125 -27.59375 C -15.15625 -26.65625 -15.84375 -25.304688 -16.375 -23.546875 C -16.914062 -21.796875 -17.488281 -19.695312 -18.09375 -17.25 C -18.863281 -14.507812 -19.664062 -12.207031 -20.5 -10.34375 C -21.34375 -8.488281 -22.410156 -7.085938 -23.703125 -6.140625 C -25.003906 -5.203125 -26.695312 -4.734375 -28.78125 -4.734375 C -31.382812 -4.734375 -33.535156 -5.378906 -35.234375 -6.671875 C -36.941406 -7.972656 -38.238281 -9.753906 -39.125 -12.015625 C -40.019531 -14.285156 -40.46875 -16.820312 -40.46875 -19.625 C -40.46875 -22.675781 -39.984375 -25.375 -39.015625 -27.71875 C -38.046875 -30.0625 -36.695312 -31.972656 -34.96875 -33.453125 L -31.453125 -30.921875 C -33.085938 -29.492188 -34.296875 -27.800781 -35.078125 -25.84375 C -35.867188 -23.882812 -36.265625 -21.707031 -36.265625 -19.3125 C -36.265625 -17.6875 -36.046875 -16.132812 -35.609375 -14.65625 C -35.179688 -13.1875 -34.472656 -11.976562 -33.484375 -11.03125 C -32.492188 -10.09375 -31.128906 -9.625 -29.390625 -9.625 C -27.972656 -9.625 -26.867188 -9.976562 -26.078125 -10.6875 C -25.285156 -11.40625 -24.625 -12.472656 -24.09375 -13.890625 C -23.5625 -15.316406 -22.988281 -17.078125 -22.375 -19.171875 C -21.5625 -22.171875 -20.734375 -24.789062 -19.890625 -27.03125 C -19.046875 -29.269531 -17.960938 -31 -16.640625 -32.21875 C -15.316406 -33.445312 -13.460938 -34.0625 -11.078125 -34.0625 C -7.359375 -34.0625 -4.453125 -32.660156 -2.359375 -29.859375 C -0.273438 -27.054688 0.765625 -23.363281 0.765625 -18.78125 Z M 0.765625 -18.78125 "/></g></g></g></svg>