<svg xmlns="http://www.w3.org/2000/svg" xmlns:xlink="http://www.w3.org/1999/xlink" width="500" zoomAndPan="magnify" viewBox="0 0 375 374.999991" height="500" preserveAspectRatio="xMidYMid meet" version="1.0"><defs><clipPath id="059fc46eaa"><path d="M 51.476562 103 L 164 103 L 164 264 L 51.476562 264 Z M 51.476562 103 " clip-rule="nonzero"/></clipPath></defs><path fill="#ffffff" d="M 129.542969 92.792969 C 128.464844 92.792969 127.878906 93.046875 127.804688 93.238281 C 127.796875 93.246094 127.578125 93.832031 128.988281 95.546875 C 131.75 98.894531 135.289062 102.042969 139.5 104.894531 C 145.925781 109.257812 152.941406 112.636719 160.359375 114.9375 C 162.492188 115.597656 164.382812 115.578125 164.761719 114.890625 C 165.09375 114.292969 164.5 112.9375 163.253906 111.429688 C 155.203125 101.71875 143.445312 94.96875 130.996094 92.921875 C 130.441406 92.832031 129.957031 92.792969 129.542969 92.792969 Z M 163.105469 120.339844 C 161.820312 120.339844 160.414062 120.109375 158.90625 119.640625 C 151.019531 117.199219 143.5625 113.605469 136.730469 108.964844 C 132.136719 105.851562 128.257812 102.386719 125.1875 98.679688 C 122.992188 96.015625 122.339844 93.546875 123.246094 91.351562 C 124.402344 88.558594 127.527344 87.359375 131.804688 88.066406 C 145.402344 90.304688 158.25 97.679688 167.046875 108.289062 C 170.5 112.46875 170.0625 115.46875 169.085938 117.253906 C 167.96875 119.285156 165.847656 120.339844 163.105469 120.339844 " fill-opacity="1" fill-rule="nonzero"/><path fill="#ffffff" d="M 162.359375 133.765625 C 161.890625 133.765625 161.421875 133.742188 160.953125 133.707031 C 149.949219 132.75 139.683594 128.804688 131.273438 122.308594 C 130.195312 121.476562 129.996094 119.929688 130.828125 118.855469 C 131.664062 117.777344 133.203125 117.578125 134.28125 118.40625 C 141.945312 124.332031 151.320312 127.925781 161.382812 128.804688 C 165.53125 129.15625 169.65625 127.179688 172.09375 123.640625 C 176.125 117.800781 175.226562 111.4375 169.441406 104.742188 C 157.589844 91.007812 146.402344 84.890625 129.550781 82.894531 C 123.054688 82.121094 118.378906 87.296875 115.597656 91.777344 C 113.421875 95.292969 113.914062 100.15625 116.808594 103.601562 C 118.660156 105.820312 120.746094 107.851562 122.984375 109.636719 C 124.046875 110.480469 124.226562 112.027344 123.371094 113.097656 C 122.523438 114.160156 120.976562 114.335938 119.914062 113.484375 C 117.414062 111.492188 115.097656 109.234375 113.027344 106.757812 C 108.726562 101.625 108.082031 94.5625 111.421875 89.175781 C 116.484375 81.027344 122.957031 77.164062 130.128906 78.011719 C 148.109375 80.125 160.582031 86.945312 173.171875 101.527344 C 180.398438 109.890625 181.460938 118.738281 176.148438 126.433594 C 172.980469 131.042969 167.785156 133.765625 162.359375 133.765625 " fill-opacity="1" fill-rule="nonzero"/><g clip-path="url(#059fc46eaa)"><path fill="#ffffff" d="M 79.332031 263.578125 C 74.171875 263.578125 68.945312 262.109375 64.496094 259.175781 C 56.488281 253.875 51.386719 243.996094 51.515625 234.015625 C 51.648438 224.257812 56.226562 215.417969 60.265625 207.613281 L 90.136719 149.800781 C 90.160156 149.75 90.183594 149.703125 90.207031 149.65625 L 113.398438 104.8125 C 114.023438 103.601562 115.515625 103.125 116.714844 103.757812 C 117.929688 104.378906 118.398438 105.867188 117.777344 107.074219 L 94.644531 151.796875 C 94.628906 151.84375 94.609375 151.878906 94.585938 151.933594 L 64.644531 209.867188 C 60.851562 217.195312 56.558594 225.488281 56.441406 234.082031 C 56.332031 242.433594 60.566406 250.667969 67.214844 255.066406 C 74.046875 259.570312 83.488281 259.816406 90.167969 255.675781 C 96.640625 251.652344 100.449219 244.210938 103.8125 237.640625 C 113.46875 218.742188 123.132812 199.851562 132.796875 180.953125 L 143.117188 160.789062 C 143.140625 160.746094 143.160156 160.707031 143.183594 160.667969 C 143.617188 159.78125 144.078125 158.90625 144.53125 158.019531 C 144.554688 157.980469 144.570312 157.929688 144.59375 157.890625 C 149.324219 148.625 154.050781 139.382812 158.796875 130.128906 C 159.414062 128.910156 160.898438 128.433594 162.105469 129.058594 C 163.324219 129.671875 163.800781 131.15625 163.175781 132.367188 C 158.460938 141.578125 153.757812 150.773438 149.054688 159.992188 C 149.027344 160.042969 149.003906 160.105469 148.972656 160.160156 C 148.480469 161.097656 147.996094 162.046875 147.523438 162.984375 C 147.496094 163.054688 147.464844 163.105469 147.425781 163.167969 L 137.183594 183.199219 C 127.519531 202.089844 117.855469 220.988281 108.195312 239.878906 C 104.71875 246.664062 100.402344 255.113281 92.761719 259.855469 C 88.757812 262.347656 84.066406 263.578125 79.332031 263.578125 " fill-opacity="1" fill-rule="nonzero"/></g><path fill="#ffffff" d="M 146.785156 161.484375 C 146.761719 161.484375 146.730469 161.484375 146.703125 161.484375 C 145.378906 161.4375 144.324219 160.359375 144.324219 159.035156 L 144.324219 159.003906 C 144.5 156.582031 141.609375 154.257812 138.851562 152.828125 C 127.265625 146.855469 113.261719 145.039062 100.449219 147.847656 C 98.0625 148.378906 96.277344 149.195312 95.414062 150.15625 C 94.507812 151.171875 92.945312 151.257812 91.9375 150.347656 C 90.921875 149.441406 90.835938 147.886719 91.746094 146.871094 C 93.332031 145.101562 95.902344 143.808594 99.386719 143.039062 C 113.304688 139.984375 128.519531 141.960938 141.113281 148.457031 C 146.578125 151.289062 149.539062 155.195312 149.25 159.191406 C 149.148438 160.476562 148.078125 161.484375 146.785156 161.484375 " fill-opacity="1" fill-rule="nonzero"/><path fill="#ffffff" d="M 129.164062 166.902344 C 118.714844 166.902344 108.28125 164.9375 98.554688 161.097656 C 96.648438 160.34375 94.476562 159.398438 92.730469 157.78125 C 90.53125 155.71875 89.5 152.972656 89.960938 150.417969 C 89.96875 150.386719 89.976562 150.355469 89.984375 150.316406 C 90.074219 149.832031 90.320312 149.371094 90.667969 149.019531 C 91.628906 148.054688 93.191406 148.054688 94.152344 149.019531 C 94.785156 149.65625 95 150.558594 94.792969 151.363281 C 94.667969 152.226562 95.167969 153.320312 96.085938 154.171875 C 97.199219 155.203125 98.816406 155.90625 100.371094 156.527344 C 112.121094 161.160156 124.980469 162.890625 137.566406 161.523438 C 139.582031 161.3125 142.308594 161.023438 143.640625 160.089844 C 144.078125 159.675781 144.671875 159.421875 145.316406 159.421875 C 146.679688 159.421875 147.777344 160.523438 147.777344 161.882812 C 147.777344 162.667969 147.410156 163.375 146.839844 163.832031 C 144.445312 165.746094 140.777344 166.140625 138.089844 166.421875 C 135.128906 166.746094 132.152344 166.902344 129.164062 166.902344 " fill-opacity="1" fill-rule="nonzero"/><path fill="#ffffff" d="M 114.828125 180.035156 C 114.128906 180.035156 113.421875 180.28125 112.945312 180.742188 C 112.082031 181.605469 111.96875 183.257812 112.714844 184.222656 C 113.453125 185.183594 115.082031 185.5 116.128906 184.890625 C 116.667969 184.574219 117.5 183.621094 117.570312 182.574219 C 117.585938 182.304688 117.644531 181.496094 116.429688 180.542969 C 115.992188 180.203125 115.414062 180.035156 114.828125 180.035156 Z M 114.90625 190.125 C 112.582031 190.125 110.25 189.101562 108.8125 187.222656 C 106.566406 184.3125 106.867188 179.828125 109.480469 177.242188 C 112.097656 174.65625 116.585938 174.402344 119.46875 176.671875 C 121.570312 178.328125 122.640625 180.535156 122.484375 182.90625 C 122.292969 185.761719 120.410156 188.09375 118.632812 189.136719 C 117.492188 189.800781 116.199219 190.125 114.90625 190.125 " fill-opacity="1" fill-rule="nonzero"/><path fill="#ffffff" d="M 92.570312 194.753906 C 91.238281 194.753906 89.835938 195.503906 89.253906 196.679688 C 88.46875 198.257812 89.167969 200.589844 90.707031 201.480469 C 92.253906 202.390625 94.636719 201.875 95.699219 200.402344 C 96.167969 199.773438 96.554688 198.679688 96.253906 197.527344 C 95.976562 196.464844 95.175781 195.625 93.875 195.03125 C 93.46875 194.839844 93.023438 194.753906 92.570312 194.753906 Z M 92.5 206.867188 C 91.015625 206.867188 89.527344 206.496094 88.222656 205.734375 C 84.441406 203.527344 82.894531 198.371094 84.84375 194.480469 C 86.828125 190.5 91.914062 188.707031 95.929688 190.554688 C 98.5625 191.761719 100.371094 193.800781 101.015625 196.28125 C 101.640625 198.671875 101.148438 201.296875 99.6875 203.304688 C 98.015625 205.605469 95.253906 206.867188 92.5 206.867188 " fill-opacity="1" fill-rule="nonzero"/><path fill="#ffffff" d="M 80.433594 225.695312 C 77.964844 225.695312 75.515625 227.566406 74.894531 229.960938 C 74.261719 232.421875 75.601562 235.367188 77.878906 236.515625 C 79.578125 237.371094 81.820312 237.277344 83.441406 236.292969 C 84.597656 235.585938 86.472656 233.882812 85.964844 230.492188 C 85.597656 227.964844 83.21875 225.820312 80.664062 225.703125 C 80.585938 225.695312 80.511719 225.695312 80.433594 225.695312 Z M 80.441406 242.015625 C 78.796875 242.015625 77.140625 241.65625 75.671875 240.917969 C 71.285156 238.707031 68.90625 233.46875 70.128906 228.726562 C 71.339844 224.035156 76.0625 220.578125 80.902344 220.78125 C 85.757812 221.011719 90.128906 224.957031 90.835938 229.765625 C 91.5 234.230469 89.699219 238.238281 86.011719 240.492188 C 84.351562 241.507812 82.394531 242.015625 80.441406 242.015625 " fill-opacity="1" fill-rule="nonzero"/><path fill="#ffffff" d="M 152.910156 43.621094 C 152.695312 43.621094 152.480469 43.636719 152.265625 43.675781 C 150.070312 44.039062 148.25 46.308594 148.363281 48.53125 C 148.480469 50.746094 150.527344 52.816406 152.75 52.949219 C 154.003906 53.03125 155.90625 52.394531 156.957031 51.078125 C 157.8125 50.023438 157.996094 48.691406 157.519531 47.007812 C 156.972656 45.085938 154.917969 43.621094 152.910156 43.621094 Z M 152.925781 57.878906 C 152.765625 57.878906 152.601562 57.871094 152.449219 57.863281 C 147.734375 57.582031 143.683594 53.511719 143.4375 48.785156 C 143.199219 44.0625 146.792969 39.589844 151.457031 38.820312 C 156.121094 38.050781 160.96875 41.121094 162.261719 45.667969 C 163.160156 48.855469 162.644531 51.871094 160.796875 54.171875 C 158.707031 56.765625 155.433594 57.878906 152.925781 57.878906 " fill-opacity="1" fill-rule="nonzero"/><path fill="#ffffff" d="M 184 77.085938 L 184.019531 77.085938 Z M 176.019531 70.675781 C 173.195312 70.675781 170.425781 73.085938 170.070312 75.941406 C 169.710938 78.910156 171.988281 82.140625 174.957031 82.851562 C 176.394531 83.1875 177.804688 82.941406 178.925781 82.148438 C 180.375 81.125 181.28125 79.289062 181.550781 76.816406 C 181.707031 75.472656 181.21875 74.015625 180.234375 72.816406 C 179.210938 71.585938 177.820312 70.808594 176.410156 70.691406 C 176.28125 70.675781 176.148438 70.675781 176.019531 70.675781 Z M 176.179688 87.921875 C 175.394531 87.921875 174.601562 87.828125 173.816406 87.636719 C 168.386719 86.34375 164.507812 80.828125 165.183594 75.339844 C 165.878906 69.699219 171.203125 65.320312 176.8125 65.78125 C 179.535156 66.007812 182.167969 67.429688 184.027344 69.683594 C 185.859375 71.902344 186.746094 74.703125 186.445312 77.355469 C 185.898438 82.304688 183.597656 84.882812 181.765625 86.175781 C 180.136719 87.320312 178.1875 87.921875 176.179688 87.921875 " fill-opacity="1" fill-rule="nonzero"/><path fill="#ffffff" d="M 220.640625 90.066406 C 220.039062 90.066406 219.441406 90.144531 218.855469 90.296875 C 215.046875 91.285156 212.300781 95.554688 212.984375 99.425781 C 213.660156 103.3125 217.695312 106.375 221.617188 106.011719 C 223.609375 105.828125 226.304688 104.566406 227.851562 102.164062 C 229.105469 100.210938 229.304688 97.941406 228.429688 95.421875 C 228.429688 95.414062 228.429688 95.414062 228.429688 95.414062 C 227.335938 92.269531 223.964844 90.066406 220.640625 90.066406 Z M 220.988281 110.96875 C 214.929688 110.96875 209.183594 106.296875 208.128906 100.277344 C 207.003906 93.90625 211.351562 87.152344 217.617188 85.527344 C 223.871094 83.90625 230.960938 87.691406 233.082031 93.808594 C 234.824219 98.808594 233.445312 102.5625 231.992188 104.835938 C 229.851562 108.160156 225.957031 110.550781 222.078125 110.914062 C 221.71875 110.953125 221.347656 110.96875 220.988281 110.96875 " fill-opacity="1" fill-rule="nonzero"/><path fill="#ffffff" d="M 251.914062 57.75 C 250.957031 57.75 250.042969 57.964844 249.25 58.378906 C 247.910156 59.089844 246.847656 60.433594 246.339844 62.082031 C 245.832031 63.730469 245.957031 65.445312 246.664062 66.785156 C 247.378906 68.121094 248.734375 69.183594 250.382812 69.683594 C 252.027344 70.183594 253.738281 70.0625 255.082031 69.347656 C 256.851562 68.398438 259.808594 65.105469 257.652344 60.980469 C 256.945312 59.636719 255.597656 58.574219 253.953125 58.066406 C 253.273438 57.859375 252.582031 57.75 251.914062 57.75 Z M 252.382812 74.910156 C 251.234375 74.910156 250.074219 74.738281 248.941406 74.394531 C 246.058594 73.507812 243.640625 71.585938 242.316406 69.09375 C 240.992188 66.605469 240.746094 63.519531 241.632812 60.636719 C 242.523438 57.75 244.464844 55.339844 246.957031 54.027344 C 249.441406 52.710938 252.527344 52.464844 255.414062 53.363281 C 258.300781 54.257812 260.699219 56.195312 262.007812 58.695312 C 265.546875 65.445312 261.445312 71.523438 257.398438 73.6875 C 255.890625 74.492188 254.152344 74.910156 252.382812 74.910156 " fill-opacity="1" fill-rule="nonzero"/><path fill="#ffffff" d="M 254.628906 93.375 C 254.597656 93.375 254.566406 93.375 254.535156 93.375 C 253.273438 93.398438 252.183594 93.921875 251.613281 94.769531 C 251.050781 95.617188 250.980469 96.824219 251.441406 98 C 251.898438 99.179688 252.765625 100.023438 253.75 100.261719 C 254.8125 100.523438 256.867188 99.6875 257.824219 98.253906 C 258.570312 97.140625 258.46875 95.96875 257.515625 94.652344 C 256.929688 93.855469 255.851562 93.375 254.628906 93.375 Z M 254.152344 105.234375 C 253.621094 105.234375 253.089844 105.171875 252.589844 105.058594 C 250.035156 104.433594 247.894531 102.464844 246.847656 99.785156 C 245.8125 97.117188 246.066406 94.214844 247.527344 92.03125 C 248.988281 89.84375 251.574219 88.507812 254.445312 88.453125 C 257.285156 88.335938 259.945312 89.636719 261.492188 91.761719 C 263.679688 94.761719 263.832031 98.125 261.914062 100.996094 C 260.199219 103.566406 257.015625 105.234375 254.152344 105.234375 " fill-opacity="1" fill-rule="nonzero"/><path fill="#ffffff" d="M 228.699219 148.617188 C 226.796875 148.617188 224.796875 148.402344 222.886719 147.617188 C 219.332031 146.164062 216.261719 142.167969 217.285156 138.023438 C 218.140625 134.558594 221.289062 132.644531 223.941406 131.359375 C 238.078125 124.511719 253.828125 121.339844 269.527344 122.203125 C 275.597656 122.53125 279.5 124.996094 280.222656 128.941406 C 280.90625 132.683594 278.460938 136.222656 273.34375 138.90625 C 264.632812 143.46875 255.28125 146.5625 245.558594 148.101562 C 244.210938 148.316406 242.957031 147.394531 242.742188 146.046875 C 242.53125 144.707031 243.449219 143.445312 244.789062 143.238281 C 253.984375 141.785156 262.824219 138.859375 271.058594 134.542969 C 272.164062 133.960938 275.757812 131.90625 275.375 129.828125 C 275.050781 128.058594 271.878906 127.265625 269.257812 127.117188 C 254.398438 126.308594 239.476562 129.304688 226.089844 135.789062 C 224.402344 136.605469 222.425781 137.730469 222.066406 139.199219 C 221.703125 140.675781 223.195312 142.421875 224.757812 143.0625 C 226.921875 143.9375 229.683594 143.707031 232.128906 143.5 C 233.460938 143.402344 234.675781 144.386719 234.792969 145.738281 C 234.90625 147.09375 233.90625 148.285156 232.542969 148.402344 C 231.359375 148.511719 230.050781 148.617188 228.699219 148.617188 " fill-opacity="1" fill-rule="nonzero"/><path fill="#ffffff" d="M 264.679688 117.890625 C 250.003906 117.890625 235.324219 121.324219 221.75 127.964844 C 218.640625 129.488281 215.425781 131.257812 213.015625 133.828125 C 210.90625 136.082031 209.820312 138.746094 209.792969 141.738281 C 209.785156 142.59375 209.929688 143.539062 210.246094 144.632812 L 211.078125 147.554688 C 212.222656 151.617188 215.507812 154.789062 219.648438 155.835938 C 236.347656 160.058594 268.433594 154.933594 282.078125 142.921875 C 286.523438 139.015625 288.5 134.773438 287.960938 130.335938 C 287.960938 130.328125 287.960938 130.328125 287.960938 130.328125 L 287.941406 130.097656 C 287.386719 125.5625 284.421875 121.695312 280.199219 119.984375 C 277.9375 119.070312 275.574219 118.492188 273.1875 118.277344 C 270.355469 118.023438 267.519531 117.890625 264.679688 117.890625 Z M 233.429688 162.214844 C 227.851562 162.214844 222.695312 161.691406 218.441406 160.605469 C 212.601562 159.128906 207.960938 154.652344 206.335938 148.902344 L 205.503906 145.984375 C 205.058594 144.433594 204.851562 143.023438 204.867188 141.683594 C 204.90625 137.421875 206.445312 133.644531 209.421875 130.464844 C 212.382812 127.304688 216.214844 125.195312 219.585938 123.546875 C 236.59375 115.214844 255.28125 111.707031 273.636719 113.375 C 276.503906 113.636719 279.335938 114.320312 282.046875 115.421875 C 287.925781 117.800781 292.054688 123.195312 292.824219 129.496094 L 292.855469 129.742188 C 293.585938 135.8125 290.988281 141.644531 285.332031 146.625 C 273.804688 156.765625 251.382812 162.214844 233.429688 162.214844 " fill-opacity="1" fill-rule="nonzero"/><path fill="#ffffff" d="M 283.355469 332.59375 C 274.421875 332.59375 265.988281 329.652344 260.03125 324.3125 C 250.613281 315.863281 247.726562 302.253906 245.617188 292.308594 C 236.191406 247.851562 226.75 203.359375 217.308594 158.890625 C 217.023438 157.558594 217.871094 156.25 219.203125 155.964844 C 220.527344 155.679688 221.839844 156.535156 222.125 157.867188 C 231.566406 202.335938 241.007812 246.828125 250.433594 291.292969 C 252.980469 303.3125 255.714844 313.824219 263.316406 320.644531 C 269.464844 326.144531 278.8125 328.636719 288.347656 327.3125 C 299.90625 325.714844 309.878906 318.625 313.753906 309.269531 C 317.828125 299.496094 315.671875 288.464844 312.664062 276.097656 L 294.542969 201.417969 C 294.441406 201.042969 294.347656 200.640625 294.265625 200.234375 C 294.257812 200.210938 294.25 200.179688 294.242188 200.15625 L 281 145.632812 C 280.683594 144.308594 281.492188 142.976562 282.816406 142.652344 C 284.136719 142.332031 285.46875 143.148438 285.785156 144.46875 L 299.003906 198.917969 C 299.019531 198.972656 299.035156 199.019531 299.042969 199.074219 C 299.136719 199.457031 299.21875 199.835938 299.320312 200.21875 L 317.449219 274.9375 C 319.925781 285.140625 323.328125 299.105469 318.304688 311.164062 C 313.769531 322.097656 302.273438 330.355469 289.023438 332.191406 C 287.125 332.453125 285.222656 332.59375 283.355469 332.59375 " fill-opacity="1" fill-rule="nonzero"/><path fill="#ffffff" d="M 294.597656 201.605469 Z M 263.871094 192.101562 C 255.777344 192.101562 247.957031 193.203125 240.679688 195.394531 C 238.292969 196.09375 235.855469 196.964844 234.070312 198.519531 C 232.714844 199.679688 231.527344 201.644531 231.921875 203.441406 C 232.175781 204.667969 233.167969 205.882812 234.636719 206.78125 C 236.246094 207.773438 238.253906 208.328125 240.007812 208.769531 C 255.105469 212.601562 270.019531 212.792969 283.144531 209.3125 C 285.515625 208.691406 288.230469 207.84375 290.433594 206.320312 C 292.457031 204.945312 294.734375 203.144531 294.527344 201.375 C 294.527344 201.359375 294.527344 201.34375 294.527344 201.34375 C 294.488281 201.148438 294.464844 200.964844 294.472656 200.773438 C 294.402344 200.640625 294.34375 200.503906 294.296875 200.359375 C 293.796875 198.996094 292.640625 197.679688 291.125 196.75 C 289.21875 195.554688 286.953125 194.917969 284.128906 194.316406 C 277.289062 192.839844 270.488281 192.101562 263.871094 192.101562 Z M 263.410156 216.714844 C 255.40625 216.714844 247.125 215.65625 238.808594 213.546875 C 236.707031 213.023438 234.269531 212.339844 232.058594 210.984375 C 229.398438 209.34375 227.636719 207.035156 227.105469 204.464844 C 226.382812 201.105469 227.8125 197.394531 230.851562 194.785156 C 233.335938 192.625 236.5 191.492188 239.261719 190.667969 C 253.296875 186.453125 269.164062 186.046875 285.160156 189.5 C 288.039062 190.117188 291.070312 190.910156 293.71875 192.5625 C 296.21875 194.101562 298.082031 196.300781 298.949219 198.75 C 298.957031 198.773438 298.964844 198.804688 298.972656 198.828125 C 299.058594 199.082031 299.105469 199.347656 299.105469 199.609375 C 299.105469 199.632812 299.105469 199.648438 299.105469 199.671875 C 299.175781 199.796875 299.226562 199.925781 299.273438 200.066406 C 299.328125 200.234375 299.390625 200.566406 299.414062 200.742188 C 300.003906 205.75 295.257812 208.992188 293.226562 210.375 C 290.410156 212.332031 287.1875 213.339844 284.398438 214.078125 C 277.757812 215.839844 270.695312 216.714844 263.410156 216.714844 " fill-opacity="1" fill-rule="nonzero"/><path fill="#ffffff" d="M 261.769531 237.300781 C 259.144531 237.300781 256.460938 239.070312 255.660156 241.578125 C 254.707031 244.554688 256.515625 248.242188 259.460938 249.304688 C 262.402344 250.375 266.148438 248.695312 267.324219 245.796875 C 267.949219 244.242188 267.839844 242.261719 267.039062 240.640625 C 266.503906 239.539062 265.410156 238.101562 263.246094 237.492188 C 262.761719 237.363281 262.269531 237.300781 261.769531 237.300781 Z M 261.285156 254.535156 C 260.101562 254.542969 258.914062 254.34375 257.785156 253.9375 C 252.414062 251.996094 249.226562 245.511719 250.964844 240.070312 C 252.71875 234.628906 259.070312 231.199219 264.578125 232.753906 C 267.625 233.613281 270.074219 235.636719 271.464844 238.46875 C 272.882812 241.355469 273.042969 244.78125 271.886719 247.640625 C 270.203125 251.828125 265.734375 254.535156 261.285156 254.535156 " fill-opacity="1" fill-rule="nonzero"/><path fill="#ffffff" d="M 291.570312 251.480469 C 291.347656 251.480469 291.125 251.511719 290.917969 251.574219 C 289.671875 251.929688 288.730469 253.429688 288.949219 254.714844 C 289.171875 256 290.539062 257.113281 291.855469 257.015625 C 292.617188 256.96875 293.71875 256.421875 294.234375 255.597656 C 294.640625 254.9375 294.648438 254.152344 294.257812 253.183594 C 293.839844 252.183594 292.671875 251.480469 291.570312 251.480469 Z M 291.726562 261.9375 C 288.085938 261.9375 284.722656 259.152344 284.101562 255.550781 C 283.453125 251.796875 285.902344 247.894531 289.554688 246.84375 C 293.203125 245.78125 297.367188 247.796875 298.8125 251.3125 C 299.8125 253.75 299.667969 256.199219 298.40625 258.207031 C 296.902344 260.609375 294.1875 261.800781 292.164062 261.929688 C 292.019531 261.9375 291.871094 261.9375 291.726562 261.9375 " fill-opacity="1" fill-rule="nonzero"/><path fill="#ffffff" d="M 267.003906 274.414062 C 266.1875 274.414062 265.347656 274.710938 264.824219 275.296875 C 263.871094 276.375 263.949219 278.359375 264.984375 279.382812 C 266.015625 280.398438 268.054688 280.460938 269.164062 279.5 C 269.75 279 270.09375 278.246094 270.101562 277.484375 C 270.101562 276.613281 269.648438 275.757812 268.804688 275.019531 C 268.324219 274.605469 267.671875 274.414062 267.003906 274.414062 Z M 267.148438 285.132812 C 265.09375 285.132812 263.039062 284.378906 261.53125 282.890625 C 258.621094 280.03125 258.445312 275.058594 261.144531 272.027344 C 263.871094 268.972656 268.957031 268.632812 272.027344 271.296875 C 272.027344 271.296875 272.027344 271.296875 272.027344 271.304688 C 273.964844 272.988281 275.035156 275.191406 275.027344 277.496094 C 275.019531 279.675781 274.027344 281.824219 272.375 283.238281 C 270.894531 284.5 269.019531 285.132812 267.148438 285.132812 " fill-opacity="1" fill-rule="nonzero"/><path fill="#ffffff" d="M 290.132812 288.871094 C 289.800781 288.871094 289.464844 288.902344 289.132812 288.964844 C 287 289.347656 285.132812 290.988281 284.46875 293.050781 C 283.808594 295.113281 284.382812 297.535156 285.894531 299.082031 C 287.714844 300.945312 290.902344 301.390625 293.140625 300.089844 C 294.441406 299.34375 295.925781 297.726562 296.296875 295.8125 C 296.597656 294.273438 296.132812 292.710938 294.925781 291.171875 C 293.804688 289.734375 291.964844 288.871094 290.132812 288.871094 Z M 290.269531 305.746094 C 287.355469 305.746094 284.4375 304.628906 282.375 302.527344 C 279.574219 299.667969 278.558594 295.359375 279.777344 291.546875 C 281 287.738281 284.332031 284.824219 288.261719 284.117188 C 292.203125 283.40625 296.34375 284.984375 298.804688 288.132812 C 301.453125 291.511719 301.527344 294.6875 301.128906 296.75 C 300.421875 300.421875 297.804688 303.082031 295.605469 304.359375 C 293.980469 305.292969 292.125 305.746094 290.269531 305.746094 " fill-opacity="1" fill-rule="nonzero"/></svg>